<svg xmlns="http://www.w3.org/2000/svg" version="1.1" xmlns:xlink="http://www.w3.org/1999/xlink" width="512" height="512" x="0" y="0" viewBox="0 0 500 500" style="enable-background:new 0 0 512 512" xml:space="preserve" class=""><g><circle cx="250" cy="250" r="249.2" fill="#ad0000" opacity="1" data-original="#00ad0c" class=""></circle><g fill="#fff"><path d="M165.7 152.1c5-5 10.5-7.6 16.4-7.6s10.5.5 13.8 1.5 5.8 2.1 7.6 3.3c1.7 1.3 3.1 3.3 4.1 6.2 1 3.3 1.5 8.4 1.5 15.4v161.8c0 4.5-.1 7.8-.4 10s-1.2 4.8-2.8 7.7c-2.7 5.2-10.3 7.8-22.7 7.8-12 0-19.5-2.5-22.4-7.6-1.6-2.9-2.5-5.6-2.8-8s-.4-6-.4-10.6V228.5l-3.8 3.5c-7.9 6-14.7 9-20.3 9s-11.5-3.4-17.6-10.2-9.2-12.8-9.2-18 3.5-10.9 10.5-17.1l47.6-43zM367.7 306.7c7.9 0 13.6.9 17 2.8 3.4 1.8 5.7 4.6 6.8 8.4s1.7 8.7 1.7 14.8-.6 11-1.9 14.7-3.3 6.2-6.2 7.6c-4.3 2.3-10.3 3.5-18 3.5H253.5c-7 0-13-2.6-18-7.8s-7.6-11.3-7.6-18.3c0-10.5 3.6-20.1 10.9-28.9s16-16.4 26.3-22.7 20.5-12.5 30.8-18.6 19-13 26.3-20.8c7.3-7.7 10.9-16 10.9-24.7 0-1.7-.7-4.2-2-7.4-1.4-3.2-2.9-5.8-4.5-7.8s-4.2-3.9-7.7-5.7-8.3-2.6-14.5-2.6-11.6 2.3-16.1 6.8c-4.6 4.6-7.1 9.1-7.7 13.5l-1.2 6.7v1.7c0 4.3-.1 7.5-.4 9.6s-1.2 4.6-2.8 7.3c-2.9 4.6-10.5 7-22.7 7-13.6 0-21.6-3.7-24.1-11-1-3.1-1.5-8-1.5-14.8 0-20.1 7.2-38.2 21.6-54.2s33.3-24 56.7-24c23.3 0 42.3 8.1 56.8 24.3s21.8 34.6 21.8 55.3c0 11-2.4 21.5-7.3 31.4-4.8 9.9-10.7 17.8-17.4 23.8-14.3 12.8-27.1 21.4-38.3 25.9l-7.3 2.9v1.5h53.2z" fill="#ffffff" opacity="1" data-original="#ffffff" class=""></path></g></g></svg>