<?xml version="1.0" encoding="UTF-8" standalone="no"?>
<!-- Created with Inkscape (http://www.inkscape.org/) -->

<svg
   version="1.1"
   id="svg1"
   width="5333.3335"
   height="5333.3335"
   viewBox="0 0 5333.3335 5333.3335"
   sodipodi:docname="icon.svg"
   inkscape:version="1.4.2 (ebf0e940d0, 2025-05-08)"
   xmlns:inkscape="http://www.inkscape.org/namespaces/inkscape"
   xmlns:sodipodi="http://sodipodi.sourceforge.net/DTD/sodipodi-0.dtd"
   xmlns="http://www.w3.org/2000/svg"
   xmlns:svg="http://www.w3.org/2000/svg">
  <sodipodi:namedview
     id="namedview1"
     pagecolor="#ffffff"
     bordercolor="#000000"
     borderopacity="0.25"
     inkscape:showpageshadow="2"
     inkscape:pageopacity="0.0"
     inkscape:pagecheckerboard="0"
     inkscape:deskcolor="#d1d1d1"
     inkscape:zoom="0.082068578"
     inkscape:cx="1346.4349"
     inkscape:cy="3076.6952"
     inkscape:window-width="1600"
     inkscape:window-height="828"
     inkscape:window-x="0"
     inkscape:window-y="0"
     inkscape:window-maximized="1"
     inkscape:current-layer="svg1" />
  <defs
     id="defs1">
    <linearGradient
       x1="0"
       y1="0"
       x2="1"
       y2="0"
       gradientUnits="userSpaceOnUse"
       gradientTransform="matrix(-10330.2,14361.1,-14361.1,-10330.2,12241.7,14946.5)"
       spreadMethod="pad"
       id="linearGradient26">
      <stop
         style="stop-opacity:1;stop-color:#1d1518"
         offset="0"
         id="stop25" />
      <stop
         style="stop-opacity:1;stop-color:#5c4345"
         offset="1"
         id="stop26" />
    </linearGradient>
    <clipPath
       clipPathUnits="userSpaceOnUse"
       id="clipPath26">
      <path
         d="m 3077,30140.9 c 52.6,1 320.86,210.5 498.39,247.2 280.83,57.8 627.5,68.5 913.95,68.2 143.2,-0.2 316.29,-23.6 455.43,0.9 106.64,18.9 225.82,64.5 328.86,100.2 62.78,-75.1 116.14,-164.7 207.82,-205.4 188.86,-209.5 361.52,-432.9 549.64,-642.9 335.45,-370.7 688.47,-723.9 1059.07,-1059.5 469.45,-422.2 945.69,-836.6 1428.71,-1243.1 138.94,-117 612.54,-467.4 683.98,-571 291.76,-204 556.06,-462.1 831.75,-688.2 860.2,-705.2 1694.9,-1436.6 2545.9,-2152.6 157.7,-132.7 448.9,-446.8 632.3,-512.8 l 33.2,29.9 c -63,-633 -187.6,-1224.7 -425.4,-1815 -666.3,-1653.7 -2383.2,-3772.4 -1836,-5617.2 88.9,-299.5 253.1,-536.2 439.1,-782.5 68.9,-91.1 149,-182.8 202.2,-284.1 -288.1,-127.3 -578.9,-276.3 -872.7,-386.7 l -11,-16.6 c -200.1,167.4 -370.9,424.5 -546,621.8 -407.1,458.4 -817.57,908.5 -1249.13,1344.1 -374.77,351.2 -1035.62,905.7 -1488.63,1128.9 864.88,-1006.4 1464.29,-2839.2 1362.58,-4163.1 -41.64,-542 -187.82,-985.9 -432.74,-1465.7 -296.09,331.8 -622.97,647.7 -955.19,943.3 -194.38,173 -557.58,428.9 -698.87,624.5 -107.46,87.3 -211.56,174 -308.75,272.8 -181.37,125.7 -352.03,277.9 -524.77,415.8 l -884.37,697.6 c 574.3,265.7 1525.97,530.8 2144.02,697.6 -141.17,40.6 -297.07,49.9 -442.34,74.6 -247.55,40.9 -491.23,98.3 -731.02,172.2 -1061.05,333.8 -2110.03,1110.7 -2770.06,2001.3 -195.03,263.1 -351.64,552.1 -503.39,841.6 885.47,-130.1 1811.34,-224.6 2706.23,-146.6 -699.11,222.6 -1386.8,447 -1991.07,880.2 -1161.43,832.7 -1956.73,2052.6 -2191.31,3470.2 368.73,-106.2 719.93,-269.7 1085.96,-385.4 695.47,-219.8 1405.39,-354.5 2123.64,-473.3 -375.86,186.6 -696.83,385.6 -999.36,680 -1750.47,1704 -1844.1,3866.7 -1882.54,6150.4 844.25,-857.3 1732.94,-1503.6 2717.14,-2183.7 -144.1,270.8 -321.92,522.8 -466.02,794.1 -413.23,778 -646.57,1664.2 -739.21,2538 z"
         transform="translate(0,-2.5e-4)"
         id="path26" />
    </clipPath>
    <linearGradient
       x1="0"
       y1="0"
       x2="1"
       y2="0"
       gradientUnits="userSpaceOnUse"
       gradientTransform="matrix(-5880.11,15793,-15793,-5880.11,36179.4,14385.4)"
       spreadMethod="pad"
       id="linearGradient30">
      <stop
         style="stop-opacity:1;stop-color:#1f1518"
         offset="0"
         id="stop29" />
      <stop
         style="stop-opacity:1;stop-color:#513c3e"
         offset="1"
         id="stop30" />
    </linearGradient>
    <clipPath
       clipPathUnits="userSpaceOnUse"
       id="clipPath30">
      <path
         d="m 36809.8,32343.9 9.6,23.6 c 29.2,73.8 25.4,107.2 33.8,179.8 4.1,35.4 22.2,42.3 45.9,63.3 0.8,-3.8 1.4,-7.5 2.3,-11.2 0.7,-2.3 1.6,-4.6 2.4,-6.9 l -39.6,-211.7 c 24,-14 9.5,-8.6 45.1,-11.1 2.5,-152.5 21.4,-304 23.1,-455.7 3.6,-320.3 -68.5,-728.9 21.3,-1035.7 10.2,-1165 -226.7,-2434.4 -820.5,-3446 -107.6,-183.5 -224.6,-383.1 -375,-535.3 -16.7,-16.8 -33.8,-33.3 -50.7,-49.9 l -54.6,-53.9 c 801.5,444.4 1557.4,1027.2 2233.5,1642.8 197.9,180.2 381.5,374.2 576,557.6 -16.1,-2196.1 -188.5,-4492.7 -1848.1,-6126.5 -349.1,-343.6 -740,-578.9 -1144.7,-845.3 1098.9,234.8 2279,551.6 3320.3,981.9 -59.4,-278.3 -122.2,-561.8 -222.1,-828.6 C 38170.3,21114.2 37350.1,20062 36401,19451 c -535.4,-344.6 -1185.5,-612 -1801.8,-773.1 551.6,-25.7 1081,-26.3 1631.2,26.2 377.3,36 752.6,99.7 1129.7,132.5 -195.8,-362.9 -400.2,-722.6 -658.2,-1045.9 -811.9,-1017.5 -1998,-1591.3 -3219,-1955 -246.6,-73.5 -496,-132.7 -751.3,-166.7 529.2,-216.9 1095,-321.6 1653.7,-432 263.5,-52 528.7,-112.7 794.3,-151.3 -209.8,-155.2 -426.2,-299.6 -633,-459.2 -235.6,-181.6 -497.3,-449.9 -762,-576.3 -54,-99.4 -462,-487.7 -565.3,-519.6 -48.5,-109.2 -431.4,-398.5 -546.8,-511.1 -335.1,-64 -665.5,-149.4 -1001.4,-212.7 -23.8,209.6 -21.6,429.2 -20,640.2 9.9,1264.9 352,2761 1276,3672.9 C 31673,16411.9 30855,15272 30064.8,14103 c -149.4,88.8 -286.9,230.7 -433.4,332.6 -278,193.3 -583.4,345.1 -887.8,491.8 -194.8,25.4 -396.5,150.2 -574.6,232.8 95.5,105.7 182,266.8 250.8,392.6 446.5,816.5 677.8,1771.1 533.1,2698.7 -135.2,866.9 -696.5,1929.7 -1074.1,2739.6 -335.5,719.6 -650.4,1442.3 -872,2205.5 212.3,267 403,547.3 625.8,807.1 625.1,729 1391.1,1323.4 2193.3,1846.4 1606.7,1229.5 3188,2587.2 4458.6,4170 300.1,373.9 582.3,771.2 854.4,1166.4 118.3,171.7 225.8,356 353.1,520.5 l 23.1,29.6 c 8.6,5.5 17.3,10.7 25.8,16.4 42.5,28.3 70.4,70.3 100.2,110.9 39.6,14.8 41.7,22.5 84.1,10.9 15.4,-4.1 62.5,-19.9 80.3,-17.3 81.2,11.9 470.2,189.3 550.3,236.9 21.4,12.8 23.1,8.2 28.9,29.9 9.8,36.4 -1.1,71.4 -7.9,107.6 85.6,95.1 332,157 397.7,248.1 12.7,17.5 12.2,64.5 12.3,83.2 l 54.1,14.9 -34,11.1 z"
         transform="translate(0,-2.5e-4)"
         id="path30" />
    </clipPath>
    <linearGradient
       x1="0"
       y1="0"
       x2="1"
       y2="0"
       gradientUnits="userSpaceOnUse"
       gradientTransform="matrix(-1418.97,21811.4,-21811.4,-1418.97,20105.3,14691.8)"
       spreadMethod="pad"
       id="linearGradient41">
      <stop
         style="stop-opacity:1;stop-color:#0e090b"
         offset="0"
         id="stop40" />
      <stop
         style="stop-opacity:1;stop-color:#1d0b12"
         offset="1"
         id="stop41" />
    </linearGradient>
    <clipPath
       clipPathUnits="userSpaceOnUse"
       id="clipPath41">
      <path
         d="m 13246,23511.8 c -4.4,202.8 7.4,405.2 0.5,607.9 -11.4,332.4 -56.7,662.2 -114.3,989.4 -111.7,634.6 -293.3,1207.3 -384.1,1865.4 -374.1,2710.5 211,5352.3 2135.4,7363 1315.8,1374.8 2918.5,2210.4 4847.2,2249 1837.3,36.7 3592.8,-551.3 4933.1,-1836.4 1603.8,-1537.6 2509.4,-3892.2 2545.7,-6096.2 9.8,-599.1 -8,-1190.9 -89.7,-1785.2 -48.7,-355 -138.4,-703.8 -197.3,-1057.3 -143.8,-862.3 -130.4,-1766.6 84.3,-2614.8 221.6,-763.2 536.5,-1485.9 872,-2205.5 377.6,-809.9 938.9,-1872.7 1074.1,-2739.6 144.7,-927.6 -86.6,-1882.2 -533.1,-2698.7 -68.8,-125.8 -155.3,-286.9 -250.8,-392.6 -152,59.3 -303.6,119.5 -454.9,180.7 l -67.9,19.7 c -176.3,83.1 -369.3,141.4 -552.6,207.5 -313.3,114.6 -627.7,225.9 -943.3,333.8 -341,117.3 -673.7,257.5 -1012.5,381.1 -69.9,26.9 -140.4,52.8 -209.1,82.6 -11.2,-88.6 -9.1,-243 -66.1,-307.4 -630.9,249 -1685.3,720.8 -2175.1,1187.6 -136.3,451.8 -200.7,1618 -208.7,2117 -392.4,-664.1 -1108,-1143.2 -1849.8,-1331.2 -662.4,-168 -1300.2,15.5 -1876.5,360.4 -250.8,150 -470,330.8 -681.7,531.2 -138.9,171.2 -262.3,411.1 -421.5,557.3 l -32,-24.7 c -0.6,-605.8 -63.4,-1675 -197,-2264.2 -381.5,-323 -1700.2,-961.6 -2216.5,-1206.9 l -29.7,-79.5 c -14.1,68.9 -20.5,139.5 -28.8,209.3 l 25.9,174.7 c -381.1,-74.9 -748.2,-224.2 -1113.6,-353.8 -818.8,-290.5 -1618.9,-617.9 -2431.7,-922.4 -53.2,101.3 -133.3,193 -202.2,284.1 -186,246.3 -350.2,483 -439.1,782.5 -547.2,1844.8 1169.7,3963.5 1836,5617.2 237.8,590.3 362.4,1182 425.4,1815 z"
         transform="translate(0,-2.5e-4)"
         id="path41" />
    </clipPath>
    <linearGradient
       x1="0"
       y1="0"
       x2="1"
       y2="0"
       gradientUnits="userSpaceOnUse"
       gradientTransform="matrix(-4653.22,-11895.7,11895.7,-4653.22,22173.2,32569.5)"
       spreadMethod="pad"
       id="linearGradient49">
      <stop
         style="stop-opacity:1;stop-color:#603932"
         offset="0"
         id="stop48" />
      <stop
         style="stop-opacity:1;stop-color:#8b5140"
         offset="1"
         id="stop49" />
    </linearGradient>
    <clipPath
       clipPathUnits="userSpaceOnUse"
       id="clipPath49">
      <path
         d="m 20278.2,33442.7 c 314.6,-1215.8 514.3,-1820.5 1508.4,-2651.3 377.8,-315.8 765.2,-592.5 1189.7,-842.4 222.9,-130.9 448.8,-256.4 677.8,-376.6 289,-150.9 647.7,-280.4 868.7,-529.6 123.2,-139 186.7,-316.2 232.9,-493.2 101.5,-389.2 132.7,-826.7 114.7,-1227.7 -14,-311.9 -68.7,-624.4 -117.2,-932.5 -150.9,-958.3 -359.1,-1941.8 -712.1,-2847.9 -135.3,-339.8 -296.6,-666.6 -484,-980.7 -263.4,-445.7 -588,-827.2 -928.5,-1214 -136.8,-627.3 -133.8,-1342.1 -149.8,-1984 -392.4,-664.1 -1108,-1143.2 -1849.8,-1331.2 -662.4,-168 -1300.2,15.5 -1876.5,360.4 -250.8,150 -470,330.8 -681.7,531.2 -138.9,171.2 -262.3,411.1 -421.5,557.3 l -32,-24.7 c 29.6,594.6 -41.8,1198.5 -103.4,1789.2 -204.8,220.2 -450.4,429.7 -608.1,687.4 -239,229.3 -400.3,529.8 -546,823.7 -956.4,1928.7 -1749,4168.7 -1029,6308.8 65.2,159.9 176.1,305.8 284,439.4 493.1,610.6 1175.4,934.1 1883.6,1231.5 988,414.9 2038,743.1 2478,1817.6 118.6,289.8 188.6,597.3 301.8,889.3 z"
         transform="translate(0,-2.5e-4)"
         id="path49" />
    </clipPath>
    <linearGradient
       x1="0"
       y1="0"
       x2="1"
       y2="0"
       gradientUnits="userSpaceOnUse"
       gradientTransform="matrix(-1552.61,1264.64,-1264.64,-1552.61,23294.9,27991.4)"
       spreadMethod="pad"
       id="linearGradient61">
      <stop
         style="stop-opacity:1;stop-color:#060606"
         offset="0"
         id="stop60" />
      <stop
         style="stop-opacity:1;stop-color:#0f0a0e"
         offset="1"
         id="stop61" />
    </linearGradient>
    <clipPath
       clipPathUnits="userSpaceOnUse"
       id="clipPath61">
      <path
         d="m 23284.6,29223.7 c 398.3,22.3 776.6,-10.8 1139.7,-184.4 -477.9,13.2 -951.5,45.3 -1392.1,-176.8 -516.4,-153.4 -1023.8,-368.3 -1456.7,-694 -130.5,-98.1 -292.5,-352.9 -422.7,-400.1 l -49.2,69.6 c -46.3,105.4 -103.1,215.9 -130,328.2 -16.5,68.4 -23.4,139.5 18.8,200.1 102.1,146.7 341.2,230.8 499.7,301.7 580.7,259.7 1159.7,464.7 1792.5,555.7 z"
         transform="translate(0,-2.5e-4)"
         id="path61" />
    </clipPath>
  </defs>
  <g
     id="g1"
     transform="translate(0,163.76019)">
    <g
       id="group-R5">
      <path
         id="path3"
         d="m 35515.1,31736.6 c 392.6,660 923.8,1582.6 1139.8,2303.2 184,-848.2 303.1,-1611.9 316.9,-2482 3.4,-218.8 15.9,-463.5 -18.1,-679.5 -89.8,306.8 -17.7,715.4 -21.3,1035.7 -1.7,151.7 -20.6,303.2 -23.1,455.7 -35.6,2.5 -21.1,-2.9 -45.1,11.1 l 39.6,211.7 c -0.8,2.3 -1.7,4.6 -2.4,6.9 -0.9,3.7 -1.5,7.4 -2.3,11.2 -23.7,-21 -41.8,-27.9 -45.9,-63.3 -8.4,-72.6 -4.6,-106 -33.8,-179.8 l -9.6,-23.6 -2.9,245.3 34,-11.1 -54.1,-14.9 c -0.1,-18.7 0.4,-65.7 -12.3,-83.2 -65.7,-91.1 -312.1,-153 -397.7,-248.1 6.8,-36.2 17.7,-71.2 7.9,-107.6 -5.8,-21.7 -7.5,-17.1 -28.9,-29.9 -80.1,-47.6 -469.1,-225 -550.3,-236.9 -17.8,-2.6 -64.9,13.2 -80.3,17.3 -42.4,11.6 -44.5,3.9 -84.1,-10.9 -29.8,-40.6 -57.7,-82.6 -100.2,-110.9 -8.5,-5.7 -17.2,-10.9 -25.8,-16.4"
         style="fill:#814f43;fill-opacity:1;fill-rule:nonzero;stroke:none"
         transform="matrix(0.13333333,0,0,-0.13333333,0,5333.3333)" />
      <path
         id="path4"
         d="m 2110.68,17757.3 c 88.68,-158.6 153.71,-351.2 230.32,-518.4 211.66,-461.8 844.25,-1737.2 909.36,-2152.8 61.15,-390.4 -144.08,-715.2 -362.68,-1017.6 l -22.07,-16.6 c -27.39,34.8 12.79,160.8 17.21,209.7 4.81,58.3 5.44,116.8 1.89,175.2 -3.55,58.5 -11.25,116.5 -23.08,173.8 -111.04,527.1 -577.23,970.5 -1010.55,1252.6 160.71,466.9 289.99,932.8 286.51,1431 -1.08,154.7 -20.34,308.6 -26.91,463.1"
         style="fill:#f9aa47;fill-opacity:1;fill-rule:nonzero;stroke:none"
         transform="matrix(0.13333333,0,0,-0.13333333,0,5333.3333)" />
      <path
         id="path5"
         d="m 31325.4,38633.2 c 4.1,-9 11.2,-17.2 12.3,-27.1 3.8,-32.3 -80.2,-213.7 -95.7,-257.1 -94.1,-263.2 -205.6,-539 -232.5,-819.1 -54.4,-564.3 376,-901.7 546.5,-1388.9 191,-546.4 -10.7,-991.5 -247.7,-1481.7 1,98 -2.8,195.9 -6,293.8 -6.6,42.2 -14.7,84 -24.3,125.6 -9.6,41.6 -20.6,82.8 -33.1,123.6 -12.5,40.8 -26.4,81.1 -41.7,120.9 -15.4,39.8 -32.1,79 -50.2,117.6 -18.2,38.6 -37.6,76.6 -58.4,113.8 -20.8,37.3 -42.9,73.8 -66.3,109.5 -23.4,35.6 -48,70.5 -73.8,104.4 -25.8,34 -52.8,67 -81,99 -224.5,260.4 -541.9,440.9 -586.5,815.8 -83.1,698.5 641.7,1434.5 1038.4,1949.9"
         style="fill:#f68b26;fill-opacity:1;fill-rule:nonzero;stroke:none"
         transform="matrix(0.13333333,0,0,-0.13333333,0,5333.3333)" />
      <path
         id="path6"
         d="m 37805.6,17720.3 c 21.3,-140.4 -38.8,-307.4 -31.2,-456.4 24.8,-482.7 145.6,-923.3 298.3,-1378 -248.3,-171.9 -474.5,-343 -658.3,-585.5 -235.6,-310.8 -414.2,-736.7 -354.8,-1132.9 6.2,-41.5 13.1,-68.7 1.6,-110 l -60.5,92.7 c -113,165.6 -219.8,333.7 -301.2,517.5 -79.3,178.9 -142.5,377.7 -129.5,575.4 45.8,693.2 953.9,1760.3 1235.6,2477.2"
         style="fill:#f9aa47;fill-opacity:1;fill-rule:nonzero;stroke:none"
         transform="matrix(0.13333333,0,0,-0.13333333,0,5333.3333)" />
      <path
         id="path7"
         d="m 8538.44,38758.9 c 203.01,-125.8 912.22,-1172.8 1030.39,-1425.5 559.27,-1196.2 -562.97,-1326.5 -872.7,-2182.7 -15.31,-168.7 -10.78,-335.2 -6.25,-504.1 -95.39,148.8 -185.93,298.6 -250.58,463.8 -266.49,680.2 88.75,1020.4 338.47,1613.2 289.03,686.1 19.3,1387.3 -239.33,2035.3"
         style="fill:#f9aa47;fill-opacity:1;fill-rule:nonzero;stroke:none"
         transform="matrix(0.13333333,0,0,-0.13333333,0,5333.3333)" />
      <path
         id="path8"
         d="m 3401.64,34216.1 c 101.4,-399.7 271.25,-768.2 444.43,-1140.7 456.2,-981.4 987.95,-1857.3 1635.38,-2723.4 -91.68,40.7 -145.04,130.3 -207.82,205.4 -103.04,-35.7 -222.22,-81.3 -328.86,-100.2 -139.14,-24.5 -312.23,-1.1 -455.43,-0.9 -286.45,0.3 -633.12,-10.4 -913.95,-68.2 -177.53,-36.7 -445.79,-246.2 -498.39,-247.2 -63.83,217.7 -50.53,500.1 -57.52,726.4 -37.4,1211.9 58.2,2178.7 382.16,3348.8"
         style="fill:#814f43;fill-opacity:1;fill-rule:nonzero;stroke:none"
         transform="matrix(0.13333333,0,0,-0.13333333,0,5333.3333)" />
      <path
         id="path9"
         d="m 10349.2,34727 c 23.5,-32.2 -56.4,-151.8 -76.3,-195.7 -194.3,-428 -308.88,-935.9 -238.6,-1405.8 136.5,-913.6 906.1,-1313.4 987.3,-2323.7 51.7,-643.7 -262.8,-1568.2 -679.1,-2055.2 29.8,117 48.1,237.1 69.2,356 2.4,505.6 -229,1083.5 -528.34,1484.7 -360.98,483.9 -935.9,909.6 -936.91,1571.2 -1.25,817.8 837.61,1998.9 1402.75,2568.5"
         style="fill:#f9aa47;fill-opacity:1;fill-rule:nonzero;stroke:none"
         transform="matrix(0.13333333,0,0,-0.13333333,0,5333.3333)" />
      <path
         id="path10"
         d="m 29754.6,34788.4 c 12.9,-11.8 17.5,-15 28.7,-31.3 53.5,-77.9 92,-181.2 136.9,-265.5 80.9,-151.1 167.5,-298.9 259.8,-443.3 216.4,-344.4 487.3,-673.6 656.4,-1044.1 292,-639.6 241.2,-1339.4 -196.4,-1898.6 -218.7,-279.7 -483,-526.5 -653.9,-841.7 -186.5,-344.1 -245.7,-731.2 -294.6,-1114.3 -5.4,-105.3 -15.7,-211 -23.7,-316.2 -327.4,440.6 -612.3,974.8 -721.1,1516.7 -173.6,864.3 212.5,1007.5 626.6,1633 568.5,858.7 368.4,1865.6 181.3,2805.3"
         style="fill:#f9aa47;fill-opacity:1;fill-rule:nonzero;stroke:none"
         transform="matrix(0.13333333,0,0,-0.13333333,0,5333.3333)" />
      <path
         id="path11"
         d="m 7458.44,17704.5 c 453.01,-223.2 1113.86,-777.7 1488.63,-1128.9 431.56,-435.6 842.03,-885.7 1249.13,-1344.1 175.1,-197.3 345.9,-454.4 546,-621.8 -4.7,-7.2 -9.1,-14.5 -14,-21.6 -69.9,-100.8 -375.1,-245.2 -492.2,-327.3 -232,-162.4 -447.87,-368.5 -602.25,-607 -610.62,-943.3 -691.25,-2210.2 -774.37,-3300.6 -38.44,-508.5 -73.96,-1017.1 -106.57,-1526 -22.54,-352.6 -23.47,-889.3 -100.66,-1215.6 C 8622.07,6995.2 8485.98,6353 8366.76,5747.4 8286.33,5338.6 8213.13,4923 8103.79,4520.9 c -47.42,-167 -108.48,-326.4 -171.56,-488 81.09,12.9 154.72,35.8 232.26,62.4 -24.41,-230.5 -77.26,-463.3 -119.69,-691.2 -91.06,-479.5 -184.55,-958.6 -280.46,-1437.1 -47.39,-240.1 -115.59,-495.4 -134.54,-738.8 -535.75,-1.8 -1071.49,-6.3 -1607.22,-13.6 -482.27,-14.2 -966.96,-8.8 -1449.42,-6.6 -445.48,4.9 -890.97,6.1 -1336.48,3.5 -211,179.5 -393.6,389.6 -564.66,606.9 -842.03,1069.7 -1449.18,2425.7 -1497.24,3796.4 -15.09,430.4 36.75,851.8 87.53,1278.1 C 1471.5,6032.1 1661.98,5737 2182.6,5038 c -62.76,168 -121.17,336.7 -163.48,511.1 -355.89,1467 315.39,3289.7 1074.31,4537.7 -127.89,-488.9 -182.26,-964.3 -48.37,-1456.8 604.48,1382.7 1278.07,2132 1416.66,3749.3 37.97,443.2 33.67,883.9 -59.53,1320.8 514.84,-863.2 921.95,-1524 792.77,-2570.7 63.2,145 119.65,288.2 158.28,441.8 269.3,1071.1 60.31,2081.5 -467.85,3034 -182.34,328.9 -396.91,639.9 -589.57,962.9 231.02,-190.6 476.8,-364.5 720.51,-538.4 l 884.37,-697.6 c 172.74,-137.9 343.4,-290.1 524.77,-415.8 97.19,-98.8 201.29,-185.5 308.75,-272.8 141.29,-195.6 504.49,-451.5 698.87,-624.5 332.22,-295.6 659.1,-611.5 955.19,-943.3 244.92,479.8 391.1,923.7 432.74,1465.7 101.71,1323.9 -497.7,3156.7 -1362.58,4163.1"
         style="fill:#d34d22;fill-opacity:1;fill-rule:nonzero;stroke:none"
         transform="matrix(0.13333333,0,0,-0.13333333,0,5333.3333)" />
      <path
         id="path12"
         d="m 7023.13,11458.5 c 830.62,-782.1 1054.57,-1182 1281.91,-2292.8 60.66,-296.4 130.35,-590.8 191.17,-887 40.39,-196.6 52.77,-498 155.94,-667.1 C 8622.07,6995.2 8485.98,6353 8366.76,5747.4 8286.33,5338.6 8213.13,4923 8103.79,4520.9 c -47.42,-167 -108.48,-326.4 -171.56,-488 81.09,12.9 154.72,35.8 232.26,62.4 -24.41,-230.5 -77.26,-463.3 -119.69,-691.2 -91.06,-479.5 -184.55,-958.6 -280.46,-1437.1 -47.39,-240.1 -115.59,-495.4 -134.54,-738.8 -535.75,-1.8 -1071.49,-6.3 -1607.22,-13.6 -482.27,-14.2 -966.96,-8.8 -1449.42,-6.6 -464.88,374.4 -850.55,627.4 -1140.4,1175.7 -304.46,576 -334.22,1201 -293.54,1838.7 12.87,201.6 24.46,415.2 83.03,609 10.76,112.2 22.34,224.2 27.57,336.9 190.94,-670.6 547.9,-1233.7 1060.88,-1706.1 l 19.53,31.1 c 14.38,121.3 -110.89,449 -148.16,581.3 -458.12,1625.7 -32.19,3076.6 1287.93,4157.8 555.12,454.7 1147.23,781 1507.27,1432.7 324.61,587.5 223.08,1178.5 45.86,1793.4"
         style="fill:#de6524;fill-opacity:1;fill-rule:nonzero;stroke:none"
         transform="matrix(0.13333333,0,0,-0.13333333,0,5333.3333)" />
      <path
         id="path13"
         d="m 6123.36,2552.2 c -29.88,31.9 -56.88,63.8 -83.01,98.8 -440.47,590.9 -652.69,1482.6 -545.27,2209.2 113.75,769.5 563.63,1502.4 1185.9,1966.4 -101.33,-216 -218.28,-430.2 -283.4,-660.6 -107.31,-379.8 -44.3,-774.4 148.63,-1115.8 307.38,-543.9 795.27,-852.7 1386.02,-1017.3 81.09,12.9 154.72,35.8 232.26,62.4 -24.41,-230.5 -77.26,-463.3 -119.69,-691.2 -91.06,-479.5 -184.55,-958.6 -280.46,-1437.1 -47.39,-240.1 -115.59,-495.4 -134.54,-738.8 -535.75,-1.8 -1071.49,-6.3 -1607.22,-13.6 -482.27,-14.2 -966.96,-8.8 -1449.42,-6.6 -464.88,374.4 -850.55,627.4 -1140.4,1175.7 -304.46,576 -334.22,1201 -293.54,1838.7 12.87,201.6 24.46,415.2 83.03,609 10.76,112.2 22.34,224.2 27.57,336.9 190.94,-670.6 547.9,-1233.7 1060.88,-1706.1 130.32,-174.9 449.34,-434.1 633.79,-558.8 -225.9,474.8 -282.54,867.3 -219.26,1387.6 292.7,-648.1 742.93,-1410.9 1398.13,-1738.8"
         style="fill:#f68b26;fill-opacity:1;fill-rule:nonzero;stroke:none"
         transform="matrix(0.13333333,0,0,-0.13333333,0,5333.3333)" />
      <path
         id="path14"
         d="m 3222.25,4831.4 c 4.55,-10.6 9.33,-21.1 13.66,-31.8 63.87,-157.1 109.77,-500.3 170.66,-701.2 284.84,-940.1 788.12,-1737.8 1603.66,-2303.8 325.08,-225.6 725.43,-369.2 1012.35,-580 -482.27,-14.2 -966.96,-8.8 -1449.42,-6.6 -464.88,374.4 -850.55,627.4 -1140.4,1175.7 -304.46,576 -334.22,1201 -293.54,1838.7 12.87,201.6 24.46,415.2 83.03,609"
         style="fill:#de6524;fill-opacity:1;fill-rule:nonzero;stroke:none"
         transform="matrix(0.13333333,0,0,-0.13333333,0,5333.3333)" />
      <path
         id="path15"
         d="m 30064.8,14103 c 790.2,1169 1608.2,2308.9 2862.3,3016.9 -924,-911.9 -1266.1,-2408 -1276,-3672.9 -1.6,-211 -3.8,-430.6 20,-640.2 335.9,63.3 666.3,148.7 1001.4,212.7 115.4,112.6 498.3,401.9 546.8,511.1 103.3,31.9 511.3,420.2 565.3,519.6 264.7,126.4 526.4,394.7 762,576.3 206.8,159.6 423.2,304 633,459.2 270.6,100.4 646.1,411.3 867.5,604.4 -451,-627.5 -1018.9,-1853.1 -1170.7,-2614.7 -16.4,-78.6 -29.1,-157.7 -38.4,-237.4 -9.2,-79.8 -14.8,-159.8 -16.8,-240 -2.1,-80.3 -0.5,-160.4 4.6,-240.5 5.2,-80.1 13.9,-159.8 26.2,-239.1 33,-201 90,-397.1 148.9,-591.7 121.1,798.8 399.9,1509 830,2190.5 -39.4,-334.9 -79.3,-664.3 -65.2,-1002.5 65.9,-1586.6 979.3,-3007 1289.1,-4548.1 97.5,494.3 68.9,1245 -51.3,1725.5 257.3,-342.8 471.2,-757.6 651.1,-1146 403.1,-870.5 732,-1793.9 592.6,-2771.1 -35.3,-247.4 -109.4,-476 -205.8,-705.7 437.9,553 728.1,1051.8 830.6,1758.9 57.8,-218.2 60.3,-469.8 79.6,-695.3 115.2,-1348.3 -182.2,-2530.8 -859.3,-3693.9 -241.3,-414.5 -725,-1138.2 -1083.5,-1439.9 -957.4,30.8 -1919.3,8.6 -2877.3,11.6 -539.9,-2.3 -1108.8,-41.1 -1645.8,11.6 l 24.9,27.8 c -28,266.1 -112.2,539.6 -163.1,803.9 l -349.6,1872.6 -15.8,71.4 -16.8,126.7 21.3,7.6 c 57,-13.7 100.7,-71.4 141.4,-111.5 -251.3,895.8 -356.2,1998.5 -455.3,2926.4 -104.3,974.4 -208,1944.3 -284,2921.5 -66.6,856.5 -95.8,2106.7 -378.5,2899.8 -189.9,532.7 -538.3,950.6 -945.4,1334.5"
         style="fill:#de6524;fill-opacity:1;fill-rule:nonzero;stroke:none"
         transform="matrix(0.13333333,0,0,-0.13333333,0,5333.3333)" />
      <path
         id="path16"
         d="m 31671.1,12806.8 c 335.9,63.3 666.3,148.7 1001.4,212.7 -295.6,-309.1 -570.7,-638.2 -850.2,-961.6 -20.5,252.6 -110.7,498.3 -151.2,748.9"
         style="fill:#5f352d;fill-opacity:1;fill-rule:nonzero;stroke:none"
         transform="matrix(0.13333333,0,0,-0.13333333,0,5333.3333)" />
      <path
         id="path17"
         d="m 33179,11800.1 c -5.8,-112.6 -54.9,-237.4 -85.8,-345.6 -82.1,-287.2 -143.8,-564.6 -129.2,-866 52.3,-1073 1014.1,-1854 1747.4,-2516 l 7.5,-23.8 14.7,7.9 -20.2,-3.6 51.9,-37.2 -8.2,-3.9 c -37.9,12.2 -30.3,4.5 -54.2,27.3 -387.9,369.7 -829,707.9 -1160.5,1132.5 -107.5,137.8 -201.3,291.9 -284.2,445.6 -65.9,122.2 -156.7,401.9 -247.5,484.4 -65.2,59.2 -344.8,136.9 -436.7,116.8 -8.3,-1.8 -16.5,-4.2 -24.8,-6.4 -59.9,-5.7 -89.6,-15.9 -128.2,-63.1 -28.5,-34.9 -55,-60.1 -89.9,-88.5 -22.3,-2.7 -44.8,-4.9 -66.9,-9.1 -46.3,-8.9 -67.4,-11.3 -88.6,-56.4 -21.7,-46.2 -27.6,-104.7 -45.6,-153.9 -253.1,-689.4 -249.8,-1424.1 -97,-2138.8 25.8,-120.5 84.3,-227.6 112.5,-345.2 15.3,-63.7 33,-109.9 64,-168.6 14.9,-28.3 11.4,-31.7 10,-62.3 -2.3,6.9 -3,14.7 -7,20.9 -155.4,239.7 -226.8,623.8 -266.3,905.8 -211.2,1506.7 348.6,2584.7 1232.8,3747.2"
         style="fill:#f68b26;fill-opacity:1;fill-rule:nonzero;stroke:none"
         transform="matrix(0.13333333,0,0,-0.13333333,0,5333.3333)" />
      <path
         id="path18"
         d="m 31997.9,3926.6 c 6,-2.1 12.1,-4.3 18.2,-6.3 246.6,-81 598.2,40.9 821.2,158.5 395,208.4 701.1,604 826.5,1031 68.5,233 82.3,490.6 45.6,730.4 -23.7,155.5 -197.1,614.3 -166.9,714.3 71.1,16.2 124.2,-14.6 183.6,-53.4 460.4,-300.4 687.4,-860.8 788.5,-1380.7 152.1,-781.5 5.7,-1663.3 -442.8,-2326.8 -77,-113.8 -158.6,-226.1 -256.5,-323.1 937,444.1 1273.8,1071.3 1730,1963.8 106.8,-448.2 86.2,-936.4 -186.8,-1326.3 -14.5,-20.8 -36.6,-32.5 -50.5,-51.4 -5.1,-7 -6.1,-16.1 -10.1,-23.7 -3.2,-6 -7.6,-11.3 -11.4,-17 l 36.4,28.9 -22.8,-23.3 c 173.6,115.6 335.4,271 486.5,414.4 659.2,625.6 994,1254.1 1236.2,2123.9 -4.1,-187.1 26.7,-382.4 6.6,-566.9 -17.9,-164.1 -63.6,-330.8 -102.7,-491.3 -207.7,-852.7 -595.3,-1611.3 -1232.4,-2222.9 -299.8,-287.8 -649.8,-544.1 -1008.1,-755.2 -164.2,-96.7 -422.2,-184.5 -554.7,-312.8 -539.9,-2.3 -1108.8,-41.1 -1645.8,11.6 l 24.9,27.8 c -28,266.1 -112.2,539.6 -163.1,803.9 l -349.6,1872.6"
         style="fill:#f68b26;fill-opacity:1;fill-rule:nonzero;stroke:none"
         transform="matrix(0.13333333,0,0,-0.13333333,0,5333.3333)" />
      <path
         id="path19"
         d="m 15171.2,16289.2 -25.9,-174.7 c 8.3,-69.8 14.7,-140.4 28.8,-209.3 19.7,-367 -38.6,-739.7 -83.1,-1103.4 -50.8,-451 -116.7,-899.7 -197.5,-1346.3 -80.8,-446.6 -176.4,-890 -286.8,-1330.1 -82.9,-331.4 -262.8,-754.9 -304.1,-1072.2 l -38.8,-132.7 c 0.3,-6 0.8,-11.9 1,-17.9 12.6,-292.8 -92,-628.4 -161.4,-912.4 -82.8,-332.2 -178.8,-660.5 -288,-985 -109.2,-324.5 -231.3,-644 -366.2,-958.7 -366.2,-854.4 -942.3,-1697.2 -447.2,-2628.2 137,-257.7 336.9,-509 549.9,-708.3 249.2,-233.2 534.7,-424.3 795,-644.7 923.5,-781.8 1473.2,-1627.6 1737,-2814.6 -294.8,2.9 -1019,49.8 -1270.8,-17.3 -400.4,-32.2 -825.4,-4.9 -1228.4,-4.1 l -2085,-1.9 -1407.8,-0.8 -2462.1,1.6 c 18.95,243.4 87.15,498.7 134.54,738.8 95.91,478.5 189.4,957.6 280.46,1437.1 42.43,227.9 95.28,460.7 119.69,691.2 -77.54,-26.6 -151.17,-49.5 -232.26,-62.4 63.08,161.6 124.14,321 171.56,488 109.34,402.1 182.54,817.7 262.97,1226.5 119.22,605.6 255.31,1247.8 285.39,1864.2 77.19,326.3 78.12,863 100.66,1215.6 32.61,508.9 68.13,1017.5 106.57,1526 83.12,1090.4 163.75,2357.3 774.37,3300.6 154.38,238.5 370.25,444.6 602.25,607 117.1,82.1 422.3,226.5 492.2,327.3 4.9,7.1 9.3,14.4 14,21.6 l 11,16.6 c 293.8,110.4 584.6,259.4 872.7,386.7 812.8,304.5 1612.9,631.9 2431.7,922.4 365.4,129.6 732.5,278.9 1113.6,353.8"
         style="fill:#181b21;fill-opacity:1;fill-rule:nonzero;stroke:none"
         transform="matrix(0.13333333,0,0,-0.13333333,0,5333.3333)" />
      <path
         id="path20"
         d="m 8103.79,4520.9 c 208.71,25.4 414.22,205.6 591.05,312.8 681.8,413.1 1361.66,868.5 1961.36,1396.1 486.7,428.1 927.4,908.7 1399.6,1352.2 -17,-139.4 -27.2,-281.2 -48.5,-419.7 -434.6,-570.6 -978.6,-1117.8 -1541.1,-1563.2 -256.3,-202.9 -518.15,-412.2 -787.92,-596.6 -162.38,-110.9 -933.16,-538.2 -991.33,-641.3 l 10.78,-11.7 c -75.31,-67.6 -435.23,-251 -533.24,-254.2 -77.54,-26.6 -151.17,-49.5 -232.26,-62.4 63.08,161.6 124.14,321 171.56,488"
         style="fill:#0e1013;fill-opacity:1;fill-rule:nonzero;stroke:none"
         transform="matrix(0.13333333,0,0,-0.13333333,0,5333.3333)" />
      <path
         id="path21"
         d="m 15145.3,16114.5 c 8.3,-69.8 14.7,-140.4 28.8,-209.3 19.7,-367 -38.6,-739.7 -83.1,-1103.4 -50.8,-451 -116.7,-899.7 -197.5,-1346.3 -80.8,-446.6 -176.4,-890 -286.8,-1330.1 -82.9,-331.4 -262.8,-754.9 -304.1,-1072.2 l -38.8,-132.7 c 0.3,-6 0.8,-11.9 1,-17.9 12.6,-292.8 -92,-628.4 -161.4,-912.4 -82.8,-332.2 -178.8,-660.5 -288,-985 -109.2,-324.5 -231.3,-644 -366.2,-958.7 -366.2,-854.4 -942.3,-1697.2 -447.2,-2628.2 137,-257.7 336.9,-509 549.9,-708.3 249.2,-233.2 534.7,-424.3 795,-644.7 923.5,-781.8 1473.2,-1627.6 1737,-2814.6 -294.8,2.9 -1019,49.8 -1270.8,-17.3 -400.4,-32.2 -825.4,-4.9 -1228.4,-4.1 l -2085,-1.9 -1407.8,-0.8 -2462.1,1.6 c 18.95,243.4 87.15,498.7 134.54,738.8 95.91,478.5 189.4,957.6 280.46,1437.1 42.43,227.9 95.28,460.7 119.69,691.2 98.01,3.2 457.93,186.6 533.24,254.2 l -10.78,11.7 c 58.17,103.1 828.95,530.4 991.33,641.3 269.77,184.4 531.62,393.7 787.92,596.6 562.5,445.4 1106.5,992.6 1541.1,1563.2 21.3,138.5 31.5,280.3 48.5,419.7 151.5,231.1 371.8,447.6 545.3,666.4 284,358.1 544.1,745.4 787.6,1131.9 1249.1,1982.7 1554.8,4450 1756.6,6734.2"
         style="fill:#0e1013;fill-opacity:1;fill-rule:nonzero;stroke:none"
         transform="matrix(0.13333333,0,0,-0.13333333,0,5333.3333)" />
      <path
         id="path22"
         d="m 15145.3,16114.5 c 8.3,-69.8 14.7,-140.4 28.8,-209.3 19.7,-367 -38.6,-739.7 -83.1,-1103.4 -50.8,-451 -116.7,-899.7 -197.5,-1346.3 -80.8,-446.6 -176.4,-890 -286.8,-1330.1 -82.9,-331.4 -262.8,-754.9 -304.1,-1072.2 l -38.8,-132.7 c -180.9,-298.1 -312,-621.9 -466,-933.9 -155.9,-316.1 -340.5,-629.5 -533.1,-924.6 -212.1,-329.7 -442.6,-646 -691.3,-949 -140.1,-171.7 -313.2,-330.7 -429.8,-518.9 -4.2,-6.8 -8.8,-13.5 -12.9,-20.4 -64.6,-110.2 -60.5,-316 -67.8,-441.4 -34.2,-596 23.9,-1165.7 150.6,-1748.4 39.4,-181.3 109.4,-356.6 136.9,-540.1 5,-33.4 16.3,-49.9 -4.9,-75.6 -53.5,69.7 -75.9,216.6 -100.2,304.9 -179.3,648.6 -278.2,1305.5 -246,1980.9 -315,-358.8 -632.3,-743.4 -985.4,-1064 -186,-167.2 -375.7,-330.2 -569.1,-488.8 -202.7,-163.2 -490.97,-327 -642.81,-537.5 -383.83,-162.8 -737.46,-415.5 -1104.26,-614.2 l -10.78,11.7 c 58.17,103.1 828.95,530.4 991.33,641.3 269.77,184.4 531.62,393.7 787.92,596.6 562.5,445.4 1106.5,992.6 1541.1,1563.2 21.3,138.5 31.5,280.3 48.5,419.7 151.5,231.1 371.8,447.6 545.3,666.4 284,358.1 544.1,745.4 787.6,1131.9 1249.1,1982.7 1554.8,4450 1756.6,6734.2"
         style="fill:#080808;fill-opacity:1;fill-rule:nonzero;stroke:none"
         transform="matrix(0.13333333,0,0,-0.13333333,0,5333.3333)" />
      <path
         id="path23"
         d="m 12361.8,4720.1 c 299,-811.9 594.9,-1629.2 876.1,-2447.4 117,-340.2 266.5,-693.6 346.8,-1043.4 l -2085,-1.9 c 100.6,314.3 165.3,641.9 244.4,962.3 107.4,434.4 224,867.1 319.8,1304.2 87.5,399.7 147.6,846.8 297.9,1226.2"
         style="fill:#84241b;fill-opacity:1;fill-rule:nonzero;stroke:none"
         transform="matrix(0.13333333,0,0,-0.13333333,0,5333.3333)" />
      <path
         id="path24"
         d="m 9801.99,4963.7 c 421.61,147 762.01,457.3 1187.91,594.3 -25,-527.6 -174.2,-1054.8 -294.4,-1566.9 -146.9,-626.4 -291.6,-1251.3 -426.9,-1880.4 -59.8,-278.6 -174.5,-600.9 -176.7,-884.1 l -2462.1,1.6 c 18.95,243.4 87.15,498.7 134.54,738.8 95.91,478.5 189.4,957.6 280.46,1437.1 42.43,227.9 95.28,460.7 119.69,691.2 98.01,3.2 457.93,186.6 533.24,254.2 366.8,198.7 720.43,451.4 1104.26,614.2"
         style="fill:#181b21;fill-opacity:1;fill-rule:nonzero;stroke:none"
         transform="matrix(0.13333333,0,0,-0.13333333,0,5333.3333)" />
      <path
         id="path25"
         d="m 3077,30140.9 c 52.6,1 320.86,210.5 498.39,247.2 280.83,57.8 627.5,68.5 913.95,68.2 143.2,-0.2 316.29,-23.6 455.43,0.9 106.64,18.9 225.82,64.5 328.86,100.2 62.78,-75.1 116.14,-164.7 207.82,-205.4 188.86,-209.5 361.52,-432.9 549.64,-642.9 335.45,-370.7 688.47,-723.9 1059.07,-1059.5 469.45,-422.2 945.69,-836.6 1428.71,-1243.1 138.94,-117 612.54,-467.4 683.98,-571 291.76,-204 556.06,-462.1 831.75,-688.2 860.2,-705.2 1694.9,-1436.6 2545.9,-2152.6 157.7,-132.7 448.9,-446.8 632.3,-512.8 l 33.2,29.9 c -63,-633 -187.6,-1224.7 -425.4,-1815 -666.3,-1653.7 -2383.2,-3772.4 -1836,-5617.2 88.9,-299.5 253.1,-536.2 439.1,-782.5 68.9,-91.1 149,-182.8 202.2,-284.1 -288.1,-127.3 -578.9,-276.3 -872.7,-386.7 l -11,-16.6 c -200.1,167.4 -370.9,424.5 -546,621.8 -407.1,458.4 -817.57,908.5 -1249.13,1344.1 -374.77,351.2 -1035.62,905.7 -1488.63,1128.9 864.88,-1006.4 1464.29,-2839.2 1362.58,-4163.1 -41.64,-542 -187.82,-985.9 -432.74,-1465.7 -296.09,331.8 -622.97,647.7 -955.19,943.3 -194.38,173 -557.58,428.9 -698.87,624.5 -107.46,87.3 -211.56,174 -308.75,272.8 -181.37,125.7 -352.03,277.9 -524.77,415.8 l -884.37,697.6 c 574.3,265.7 1525.97,530.8 2144.02,697.6 -141.17,40.6 -297.07,49.9 -442.34,74.6 -247.55,40.9 -491.23,98.3 -731.02,172.2 -1061.05,333.8 -2110.03,1110.7 -2770.06,2001.3 -195.03,263.1 -351.64,552.1 -503.39,841.6 885.47,-130.1 1811.34,-224.6 2706.23,-146.6 -699.11,222.6 -1386.8,447 -1991.07,880.2 -1161.43,832.7 -1956.73,2052.6 -2191.31,3470.2 368.73,-106.2 719.93,-269.7 1085.96,-385.4 695.47,-219.8 1405.39,-354.5 2123.64,-473.3 -375.86,186.6 -696.83,385.6 -999.36,680 -1750.47,1704 -1844.1,3866.7 -1882.54,6150.4 844.25,-857.3 1732.94,-1503.6 2717.14,-2183.7 -144.1,270.8 -321.92,522.8 -466.02,794.1 -413.23,778 -646.57,1664.2 -739.21,2538"
         style="fill:url(#linearGradient26);fill-opacity:1;fill-rule:nonzero;stroke:none"
         transform="matrix(0.13333333,0,0,-0.13333333,0,5333.3333)"
         clip-path="url(#clipPath26)" />
      <path
         id="path27"
         d="m 6425.47,13916.3 c 533.83,-195.4 985.27,-245.6 1547.77,-281.3 -405.08,-70.1 -835.58,-86.5 -1239.02,8.5 -107.46,87.3 -211.56,174 -308.75,272.8"
         style="fill:#ffffff;fill-opacity:1;fill-rule:nonzero;stroke:none"
         transform="matrix(0.13333333,0,0,-0.13333333,0,5333.3333)" />
      <path
         id="path28"
         d="m 9601.02,26105.2 c -184.38,237.4 -354.46,480.4 -520.67,730.7 l 2.62,28.6 -12.03,15.1 21.25,4 64.69,-54.8 45.97,6.7 c 291.76,-204 556.06,-462.1 831.75,-688.2 860.2,-705.2 1694.9,-1436.6 2545.9,-2152.6 157.7,-132.7 448.9,-446.8 632.3,-512.8 l 33.2,29.9 c -63,-633 -187.6,-1224.7 -425.4,-1815 -666.3,-1653.7 -2383.2,-3772.4 -1836,-5617.2 88.9,-299.5 253.1,-536.2 439.1,-782.5 68.9,-91.1 149,-182.8 202.2,-284.1 -288.1,-127.3 -578.9,-276.3 -872.7,-386.7 l -11,-16.6 c -200.1,167.4 -370.9,424.5 -546,621.8 -407.1,458.4 -817.57,908.5 -1249.13,1344.1 0.7,2.6 1.29,5.3 2.07,7.9 190.7,644.2 320.31,1070 933.32,1412.4 -199.3,102.7 -388.28,212.8 -568.12,347.1 -492.11,367.5 -1224.69,1061.3 -1304.85,1708.8 -33.36,269.7 55.98,544.6 220.16,758.2 320.12,416.4 816.87,493 1305.19,560.4 -677.11,522.2 -965.78,1267.8 -1200.5,2066.4 -157.04,534.3 -347.58,1322.2 -52.31,1838.4 259.92,454.4 836.52,706.9 1318.99,830"
         style="fill:#21181b;fill-opacity:1;fill-rule:nonzero;stroke:none"
         transform="matrix(0.13333333,0,0,-0.13333333,0,5333.3333)" />
      <path
         id="path29"
         d="m 36809.8,32343.9 9.6,23.6 c 29.2,73.8 25.4,107.2 33.8,179.8 4.1,35.4 22.2,42.3 45.9,63.3 0.8,-3.8 1.4,-7.5 2.3,-11.2 0.7,-2.3 1.6,-4.6 2.4,-6.9 l -39.6,-211.7 c 24,-14 9.5,-8.6 45.1,-11.1 2.5,-152.5 21.4,-304 23.1,-455.7 3.6,-320.3 -68.5,-728.9 21.3,-1035.7 10.2,-1165 -226.7,-2434.4 -820.5,-3446 -107.6,-183.5 -224.6,-383.1 -375,-535.3 -16.7,-16.8 -33.8,-33.3 -50.7,-49.9 l -54.6,-53.9 c 801.5,444.4 1557.4,1027.2 2233.5,1642.8 197.9,180.2 381.5,374.2 576,557.6 -16.1,-2196.1 -188.5,-4492.7 -1848.1,-6126.5 -349.1,-343.6 -740,-578.9 -1144.7,-845.3 1098.9,234.8 2279,551.6 3320.3,981.9 -59.4,-278.3 -122.2,-561.8 -222.1,-828.6 C 38170.3,21114.2 37350.1,20062 36401,19451 c -535.4,-344.6 -1185.5,-612 -1801.8,-773.1 551.6,-25.7 1081,-26.3 1631.2,26.2 377.3,36 752.6,99.7 1129.7,132.5 -195.8,-362.9 -400.2,-722.6 -658.2,-1045.9 -811.9,-1017.5 -1998,-1591.3 -3219,-1955 -246.6,-73.5 -496,-132.7 -751.3,-166.7 529.2,-216.9 1095,-321.6 1653.7,-432 263.5,-52 528.7,-112.7 794.3,-151.3 -209.8,-155.2 -426.2,-299.6 -633,-459.2 -235.6,-181.6 -497.3,-449.9 -762,-576.3 -54,-99.4 -462,-487.7 -565.3,-519.6 -48.5,-109.2 -431.4,-398.5 -546.8,-511.1 -335.1,-64 -665.5,-149.4 -1001.4,-212.7 -23.8,209.6 -21.6,429.2 -20,640.2 9.9,1264.9 352,2761 1276,3672.9 C 31673,16411.9 30855,15272 30064.8,14103 c -149.4,88.8 -286.9,230.7 -433.4,332.6 -278,193.3 -583.4,345.1 -887.8,491.8 -194.8,25.4 -396.5,150.2 -574.6,232.8 95.5,105.7 182,266.8 250.8,392.6 446.5,816.5 677.8,1771.1 533.1,2698.7 -135.2,866.9 -696.5,1929.7 -1074.1,2739.6 -335.5,719.6 -650.4,1442.3 -872,2205.5 212.3,267 403,547.3 625.8,807.1 625.1,729 1391.1,1323.4 2193.3,1846.4 1606.7,1229.5 3188,2587.2 4458.6,4170 300.1,373.9 582.3,771.2 854.4,1166.4 118.3,171.7 225.8,356 353.1,520.5 l 23.1,29.6 c 8.6,5.5 17.3,10.7 25.8,16.4 42.5,28.3 70.4,70.3 100.2,110.9 39.6,14.8 41.7,22.5 84.1,10.9 15.4,-4.1 62.5,-19.9 80.3,-17.3 81.2,11.9 470.2,189.3 550.3,236.9 21.4,12.8 23.1,8.2 28.9,29.9 9.8,36.4 -1.1,71.4 -7.9,107.6 85.6,95.1 332,157 397.7,248.1 12.7,17.5 12.2,64.5 12.3,83.2 l 54.1,14.9 -34,11.1 2.9,-245.3"
         style="fill:url(#linearGradient30);fill-opacity:1;fill-rule:nonzero;stroke:none"
         transform="matrix(0.13333333,0,0,-0.13333333,0,5333.3333)"
         clip-path="url(#clipPath30)" />
      <path
         id="path31"
         d="m 33784.6,14050.2 c -54,-99.4 -462,-487.7 -565.3,-519.6 -220.2,77.8 -440.8,154.2 -657.6,240.9 411.7,71.4 826.3,144.9 1222.9,278.7"
         style="fill:#ffffff;fill-opacity:1;fill-rule:nonzero;stroke:none"
         transform="matrix(0.13333333,0,0,-0.13333333,0,5333.3333)" />
      <path
         id="path32"
         d="m 29825.9,25850.1 c 625.2,81.9 1161.7,255.7 1723.4,-169 300.7,-227.4 457,-602.4 505.9,-967.5 102.5,-764.2 -278.9,-2122.5 -751.8,-2731.8 -214.5,-276.3 -496.1,-540 -776.3,-748.7 415.7,149.2 910.6,270.3 1331.2,62.8 10.5,-5.1 20.9,-10.5 31.1,-16.1 10.2,-5.6 20.3,-11.4 30.2,-17.5 9.9,-6.2 19.7,-12.5 29.3,-19.1 9.5,-6.7 19,-13.5 28.2,-20.6 9.3,-7.1 18.3,-14.4 27.2,-22 8.9,-7.6 17.5,-15.3 26,-23.3 8.5,-8 16.7,-16.2 24.8,-24.6 8.1,-8.5 15.9,-17.1 23.5,-25.9 7.6,-8.8 15,-17.9 22.1,-27.1 7.2,-9.2 14.1,-18.5 20.8,-28.1 6.7,-9.6 13.1,-19.3 19.3,-29.1 6.2,-9.9 12.1,-19.9 17.8,-30.1 5.6,-10.2 11,-20.5 16.2,-31 5.1,-10.4 10,-21 14.6,-31.8 4.6,-10.7 8.9,-21.5 13,-32.4 4,-10.9 7.8,-21.9 11.3,-33.1 124.9,-389.8 -42,-832.8 -228.2,-1173.9 -398.1,-729.1 -1085.8,-1327.8 -1809.7,-1724.8 301.8,-32.5 636.3,-125.8 833.7,-373.8 141.1,-177.4 175.8,-437.3 143.4,-656.6 -78.5,-530 -577,-982.6 -988.8,-1276.6 -284.1,-202.8 -590.1,-356.2 -906.1,-501.6 -169.7,-78.1 -357.1,-148.7 -514.4,-249.4 -194.8,25.4 -396.5,150.2 -574.6,232.8 95.5,105.7 182,266.8 250.8,392.6 446.5,816.5 677.8,1771.1 533.1,2698.7 -135.2,866.9 -696.5,1929.7 -1074.1,2739.6 -335.5,719.6 -650.4,1442.3 -872,2205.5 212.3,267 403,547.3 625.8,807.1 625.1,729 1391.1,1323.4 2193.3,1846.4"
         style="fill:#21181b;fill-opacity:1;fill-rule:nonzero;stroke:none"
         transform="matrix(0.13333333,0,0,-0.13333333,0,5333.3333)" />
      <path
         id="path33"
         d="m 17617.3,19455.8 32,24.7 c 159.2,-146.2 282.6,-386.1 421.5,-557.3 211.7,-200.4 430.9,-381.2 681.7,-531.2 576.3,-344.9 1214.1,-528.4 1876.5,-360.4 741.8,188 1457.4,667.1 1849.8,1331.2 8,-499 72.4,-1665.2 208.7,-2117 489.8,-466.8 1544.2,-938.6 2175.1,-1187.6 57,64.4 54.9,218.8 66.1,307.4 68.7,-29.8 139.2,-55.7 209.1,-82.6 338.8,-123.6 671.5,-263.8 1012.5,-381.1 315.6,-107.9 630,-219.2 943.3,-333.8 183.3,-66.1 376.3,-124.4 552.6,-207.5 l 67.9,-19.7 c 151.3,-61.2 302.9,-121.4 454.9,-180.7 178.1,-82.6 379.8,-207.4 574.6,-232.8 304.4,-146.7 609.8,-298.5 887.8,-491.8 146.5,-101.9 284,-243.8 433.4,-332.6 407.1,-383.9 755.5,-801.8 945.4,-1334.5 282.7,-793.1 311.9,-2043.3 378.5,-2899.8 76,-977.2 179.7,-1947.1 284,-2921.5 99.1,-927.9 204,-2030.6 455.3,-2926.4 -40.7,40.1 -84.4,97.8 -141.4,111.5 l -21.3,-7.6 16.8,-126.7 15.8,-71.4 349.6,-1872.6 c 50.9,-264.3 135.1,-537.8 163.1,-803.9 l -24.9,-27.8 c -1085.4,43.4 -2178.9,-13.2 -3265.7,10.9 -282.7,-16.8 -573.6,-3.5 -857.2,-3.9 l -1883.9,-0.6 -2542.3,-2 c -3040.7,14.4 -6083.2,-29.7 -9123.5,6.7 251.8,67.1 976,20.2 1270.8,17.3 -263.8,1187 -813.5,2032.8 -1737,2814.6 -260.3,220.4 -545.8,411.5 -795,644.7 -213,199.3 -412.9,450.6 -549.9,708.3 -495.1,931 81,1773.8 447.2,2628.2 134.9,314.7 257,634.2 366.2,958.7 109.2,324.5 205.2,652.8 288,985 69.4,284 174,619.6 161.4,912.4 -0.2,6 -0.7,11.9 -1,17.9 l 38.8,132.7 c 41.3,317.3 221.2,740.8 304.1,1072.2 110.4,440.1 206,883.5 286.8,1330.1 80.8,446.6 146.7,895.3 197.5,1346.3 44.5,363.7 102.8,736.4 83.1,1103.4 l 29.7,79.5 c 516.3,245.3 1835,883.9 2216.5,1206.9 133.6,589.2 196.4,1658.4 197,2264.2"
         style="fill:#0e1013;fill-opacity:1;fill-rule:nonzero;stroke:none"
         transform="matrix(0.13333333,0,0,-0.13333333,0,5333.3333)" />
      <path
         id="path34"
         d="m 27727.5,5190.2 401,-2435.5 c 83.2,-506.3 179.2,-1015.3 234.3,-1525.4 l -1883.9,-0.6 c 182.1,473.7 344.8,954 516.5,1431.5 198.5,552.2 404.3,1102.1 553.3,1670.5 74.7,284.9 119.4,571.7 178.8,859.5"
         style="fill:#84241b;fill-opacity:1;fill-rule:nonzero;stroke:none"
         transform="matrix(0.13333333,0,0,-0.13333333,0,5333.3333)" />
      <path
         id="path35"
         d="m 29436.5,5315.5 c 510.3,-339.8 1890.6,-1176.8 2455.6,-1328.8 45.7,-12.3 50.8,-10.3 90,11.3 l 15.8,-71.4 349.6,-1872.6 c 50.9,-264.3 135.1,-537.8 163.1,-803.9 l -24.9,-27.8 c -1085.4,43.4 -2178.9,-13.2 -3265.7,10.9 291.2,44 601.9,-13.9 895.7,29.6 24.7,46.5 22.4,82.9 15.7,135 -60.7,473.6 -171.4,952.1 -250.1,1424.2 -138.3,830.9 -260.6,1671.3 -444.8,2493.5"
         style="fill:#181b21;fill-opacity:1;fill-rule:nonzero;stroke:none"
         transform="matrix(0.13333333,0,0,-0.13333333,0,5333.3333)" />
      <path
         id="path36"
         d="m 17617.3,19455.8 32,24.7 c 159.2,-146.2 282.6,-386.1 421.5,-557.3 -22.8,-102.5 200.5,-721 239.7,-901.7 193.5,-892 254.1,-1828.9 534.1,-2699.5 141.1,-438.8 355.9,-877.4 603.3,-1267.4 242.5,-382.2 583.1,-682.9 867.8,-1031.4 -84,-209.9 -163.8,-416.6 -233.1,-631.8 -125.5,341.3 -381.3,1036.8 -568.5,1325.9 -1093.1,336.6 -2826.6,693.4 -3681.5,1460.3 -254.7,228.6 -442.9,522.8 -628.8,807.1 516.3,245.3 1835,883.9 2216.5,1206.9 133.6,589.2 196.4,1658.4 197,2264.2"
         style="fill:#5f352d;fill-opacity:1;fill-rule:nonzero;stroke:none"
         transform="matrix(0.13333333,0,0,-0.13333333,0,5333.3333)" />
      <path
         id="path37"
         d="m 18070.8,18923.2 c 211.7,-200.4 430.9,-381.2 681.7,-531.2 576.3,-344.9 1214.1,-528.4 1876.5,-360.4 741.8,188 1457.4,667.1 1849.8,1331.2 8,-499 72.4,-1665.2 208.7,-2117 489.8,-466.8 1544.2,-938.6 2175.1,-1187.6 -38.3,-128.6 -142.5,-258 -225.8,-361.7 -365.4,-455.1 -797.9,-798.3 -1311,-1074.5 -836.6,-450.6 -1800.7,-709.9 -2728.5,-893.3 -95.5,-233.9 -197.1,-467.5 -281.6,-705.5 -284.7,348.5 -625.3,649.2 -867.8,1031.4 -247.4,390 -462.2,828.6 -603.3,1267.4 -280,870.6 -340.6,1807.5 -534.1,2699.5 -39.2,180.7 -262.5,799.2 -239.7,901.7"
         style="fill:#814f43;fill-opacity:1;fill-rule:nonzero;stroke:none"
         transform="matrix(0.13333333,0,0,-0.13333333,0,5333.3333)" />
      <path
         id="path38"
         d="m 25137.8,16283 c 338.8,-123.6 671.5,-263.8 1012.5,-381.1 315.6,-107.9 630,-219.2 943.3,-333.8 183.3,-66.1 376.3,-124.4 552.6,-207.5 l 67.9,-19.7 c 151.3,-61.2 302.9,-121.4 454.9,-180.7 178.1,-82.6 379.8,-207.4 574.6,-232.8 304.4,-146.7 609.8,-298.5 887.8,-491.8 146.5,-101.9 284,-243.8 433.4,-332.6 407.1,-383.9 755.5,-801.8 945.4,-1334.5 282.7,-793.1 311.9,-2043.3 378.5,-2899.8 76,-977.2 179.7,-1947.1 284,-2921.5 99.1,-927.9 204,-2030.6 455.3,-2926.4 -40.7,40.1 -84.4,97.8 -141.4,111.5 l -21.3,-7.6 c -63.9,102.4 -1124.3,792.2 -1342.2,970.5 -1583.8,1296.4 -3120.2,2807.2 -4121.4,4610.8 -128.4,231.3 -254.4,470.1 -359.8,712.8 -92.6,213 -169.5,433.5 -270.2,642.8 -537.5,1225.7 -706.7,3165.2 -731.4,4494.2 -4.3,227.1 -42.2,505.5 -2.5,727.2"
         style="fill:#181b21;fill-opacity:1;fill-rule:nonzero;stroke:none"
         transform="matrix(0.13333333,0,0,-0.13333333,0,5333.3333)" />
      <path
         id="path39"
         d="m 14302.6,11053.2 c 237,-33.7 474.1,-94.6 707.8,-146.7 1520.7,-339.1 2983.1,-981 4122,-2062.5 342.2,-325 603,-696 914.7,-1045 1433.8,1787.9 3274.4,2754.7 5493.6,3207.1 152.1,-774.2 515.1,-1633.9 821.9,-2365 217.2,-517.9 791.4,-1640 804.2,-2144.3 14.1,-552.7 -286.1,-1155.9 -585.5,-1603 -299.7,-447.5 -779.3,-689.1 -1180.3,-1029 -627.4,-531.9 -1079.8,-1331.6 -1336.4,-2104.2 -57.1,-172.1 -119.5,-351.5 -128,-533.9 -3040.7,14.4 -6083.2,-29.7 -9123.5,6.7 251.8,67.1 976,20.2 1270.8,17.3 -263.8,1187 -813.5,2032.8 -1737,2814.6 -260.3,220.4 -545.8,411.5 -795,644.7 -213,199.3 -412.9,450.6 -549.9,708.3 -495.1,931 81,1773.8 447.2,2628.2 134.9,314.7 257,634.2 366.2,958.7 109.2,324.5 205.2,652.8 288,985 69.4,284 174,619.6 161.4,912.4 -0.2,6 -0.7,11.9 -1,17.9 l 38.8,132.7"
         style="fill:#181b21;fill-opacity:1;fill-rule:nonzero;stroke:none"
         transform="matrix(0.13333333,0,0,-0.13333333,0,5333.3333)" />
      <path
         id="path40"
         d="m 13246,23511.8 c -4.4,202.8 7.4,405.2 0.5,607.9 -11.4,332.4 -56.7,662.2 -114.3,989.4 -111.7,634.6 -293.3,1207.3 -384.1,1865.4 -374.1,2710.5 211,5352.3 2135.4,7363 1315.8,1374.8 2918.5,2210.4 4847.2,2249 1837.3,36.7 3592.8,-551.3 4933.1,-1836.4 1603.8,-1537.6 2509.4,-3892.2 2545.7,-6096.2 9.8,-599.1 -8,-1190.9 -89.7,-1785.2 -48.7,-355 -138.4,-703.8 -197.3,-1057.3 -143.8,-862.3 -130.4,-1766.6 84.3,-2614.8 221.6,-763.2 536.5,-1485.9 872,-2205.5 377.6,-809.9 938.9,-1872.7 1074.1,-2739.6 144.7,-927.6 -86.6,-1882.2 -533.1,-2698.7 -68.8,-125.8 -155.3,-286.9 -250.8,-392.6 -152,59.3 -303.6,119.5 -454.9,180.7 l -67.9,19.7 c -176.3,83.1 -369.3,141.4 -552.6,207.5 -313.3,114.6 -627.7,225.9 -943.3,333.8 -341,117.3 -673.7,257.5 -1012.5,381.1 -69.9,26.9 -140.4,52.8 -209.1,82.6 -11.2,-88.6 -9.1,-243 -66.1,-307.4 -630.9,249 -1685.3,720.8 -2175.1,1187.6 -136.3,451.8 -200.7,1618 -208.7,2117 -392.4,-664.1 -1108,-1143.2 -1849.8,-1331.2 -662.4,-168 -1300.2,15.5 -1876.5,360.4 -250.8,150 -470,330.8 -681.7,531.2 -138.9,171.2 -262.3,411.1 -421.5,557.3 l -32,-24.7 c -0.6,-605.8 -63.4,-1675 -197,-2264.2 -381.5,-323 -1700.2,-961.6 -2216.5,-1206.9 l -29.7,-79.5 c -14.1,68.9 -20.5,139.5 -28.8,209.3 l 25.9,174.7 c -381.1,-74.9 -748.2,-224.2 -1113.6,-353.8 -818.8,-290.5 -1618.9,-617.9 -2431.7,-922.4 -53.2,101.3 -133.3,193 -202.2,284.1 -186,246.3 -350.2,483 -439.1,782.5 -547.2,1844.8 1169.7,3963.5 1836,5617.2 237.8,590.3 362.4,1182 425.4,1815"
         style="fill:url(#linearGradient41);fill-opacity:1;fill-rule:nonzero;stroke:none"
         transform="matrix(0.13333333,0,0,-0.13333333,0,5333.3333)"
         clip-path="url(#clipPath41)" />
      <path
         id="path42"
         d="m 14545.9,27112.4 c 140,-265.6 184.3,-598.7 257.2,-889.6 114.8,-458 226.2,-919.4 362.6,-1371.5 -49.7,25.1 -109.1,48.7 -153.2,81.9 -38.4,160.2 -132.5,324.4 -200.5,475 -115.8,571.2 -252.4,1116.8 -266.1,1704.2"
         style="fill:#21181b;fill-opacity:1;fill-rule:nonzero;stroke:none"
         transform="matrix(0.13333333,0,0,-0.13333333,0,5333.3333)" />
      <path
         id="path43"
         d="m 27646.2,15360.6 c 200.8,357.6 323.1,746.5 413.1,1145.2 258.9,1148.5 149.4,2205.5 -172,3328.3 -111.8,390.4 -325.7,785.7 -383.4,1186.7 107.8,-130.2 162.9,-383.7 227.2,-544.2 429,-1070.8 722.8,-2178.4 610.4,-3343.3 -53.6,-555.7 -252,-1368.2 -627.4,-1792.4 l -67.9,19.7"
         style="fill:#080808;fill-opacity:1;fill-rule:nonzero;stroke:none"
         transform="matrix(0.13333333,0,0,-0.13333333,0,5333.3333)" />
      <path
         id="path44"
         d="m 25817.1,28996.4 c 205,-364.2 -56.8,-1558.9 -175.6,-1983 -93.4,-333 -220.8,-654.8 -337.6,-980.1 -64.4,-179.2 -117.2,-364.2 -189.1,-540.4 -75.1,-184 -212.7,-364.7 -261.4,-554.2 -42.6,6.5 -48.8,-1.7 -77.3,33.3 192.7,553.6 341.1,1103.6 493.8,1668.3 210.8,779.5 406.7,1560.6 547.2,2356.1"
         style="fill:#562b27;fill-opacity:1;fill-rule:nonzero;stroke:none"
         transform="matrix(0.13333333,0,0,-0.13333333,0,5333.3333)" />
      <path
         id="path45"
         d="m 25817.1,28996.4 32.2,188.8 c 76.4,-121.8 156.5,-243.1 210.1,-377 193.8,-484 106.1,-1092.4 -6.2,-1585.6 -146.1,-641.8 -504.8,-1858.3 -1071.6,-2224.5 -41.2,-26.6 -80.1,-48.5 -128.2,-59.4 48.7,189.5 186.3,370.2 261.4,554.2 71.9,176.2 124.7,361.2 189.1,540.4 116.8,325.3 244.2,647.1 337.6,980.1 118.8,424.1 380.6,1618.8 175.6,1983"
         style="fill:#5f352d;fill-opacity:1;fill-rule:nonzero;stroke:none"
         transform="matrix(0.13333333,0,0,-0.13333333,0,5333.3333)" />
      <path
         id="path46"
         d="m 15012.5,24933.2 c -100.2,51.8 -195.6,137.3 -272.5,219.7 -503.3,539.8 -1087.9,2410.8 -1061.1,3137.1 7,189.6 42.9,526 195,652.5 30.3,25.2 16.1,19.6 54,17.3 43.9,-152.4 87.3,-303.9 142.6,-452.7 157.4,-462.5 342.4,-925.6 475.4,-1394.7 13.7,-587.4 150.3,-1133 266.1,-1704.2 68,-150.6 162.1,-314.8 200.5,-475"
         style="fill:#814f43;fill-opacity:1;fill-rule:nonzero;stroke:none"
         transform="matrix(0.13333333,0,0,-0.13333333,0,5333.3333)" />
      <path
         id="path47"
         d="m 14070.5,28507.1 c 157.4,-462.5 342.4,-925.6 475.4,-1394.7 13.7,-587.4 150.3,-1133 266.1,-1704.2 -112.6,117.1 -194.6,295.7 -270.2,440.3 -117.6,224.8 -229,461.1 -301.4,704.9 -119,401 -290.9,1566.3 -169.9,1953.7"
         style="fill:#5f352d;fill-opacity:1;fill-rule:nonzero;stroke:none"
         transform="matrix(0.13333333,0,0,-0.13333333,0,5333.3333)" />
      <path
         id="path48"
         d="m 20278.2,33442.7 c 314.6,-1215.8 514.3,-1820.5 1508.4,-2651.3 377.8,-315.8 765.2,-592.5 1189.7,-842.4 222.9,-130.9 448.8,-256.4 677.8,-376.6 289,-150.9 647.7,-280.4 868.7,-529.6 123.2,-139 186.7,-316.2 232.9,-493.2 101.5,-389.2 132.7,-826.7 114.7,-1227.7 -14,-311.9 -68.7,-624.4 -117.2,-932.5 -150.9,-958.3 -359.1,-1941.8 -712.1,-2847.9 -135.3,-339.8 -296.6,-666.6 -484,-980.7 -263.4,-445.7 -588,-827.2 -928.5,-1214 -136.8,-627.3 -133.8,-1342.1 -149.8,-1984 -392.4,-664.1 -1108,-1143.2 -1849.8,-1331.2 -662.4,-168 -1300.2,15.5 -1876.5,360.4 -250.8,150 -470,330.8 -681.7,531.2 -138.9,171.2 -262.3,411.1 -421.5,557.3 l -32,-24.7 c 29.6,594.6 -41.8,1198.5 -103.4,1789.2 -204.8,220.2 -450.4,429.7 -608.1,687.4 -239,229.3 -400.3,529.8 -546,823.7 -956.4,1928.7 -1749,4168.7 -1029,6308.8 65.2,159.9 176.1,305.8 284,439.4 493.1,610.6 1175.4,934.1 1883.6,1231.5 988,414.9 2038,743.1 2478,1817.6 118.6,289.8 188.6,597.3 301.8,889.3"
         style="fill:url(#linearGradient49);fill-opacity:1;fill-rule:nonzero;stroke:none"
         transform="matrix(0.13333333,0,0,-0.13333333,0,5333.3333)"
         clip-path="url(#clipPath49)" />
      <path
         id="path50"
         d="m 20768.4,22223.4 c 87.9,-16.9 188.3,-47.6 277.1,-43.9 112,-26.3 227,-46.1 329.9,-99.1 l -13.1,6.5 -26.2,-20.8 c -44,10.9 -85.4,22.1 -128.1,36.9 -308.6,107.5 -847.6,-5.7 -1176.4,-6.2 -299.2,-0.4 -595.9,38.4 -896.7,33.6 167.5,36.7 356.2,72.3 527.3,80.8 211.6,10.5 996.6,-29.9 1106.2,12.2"
         style="fill:#562b27;fill-opacity:1;fill-rule:nonzero;stroke:none"
         transform="matrix(0.13333333,0,0,-0.13333333,0,5333.3333)" />
      <path
         id="path51"
         d="m 22518.7,28213.1 c 319.5,55.3 637.6,80.7 961.7,59.9 -167.4,-25.3 -488,-32.9 -629.5,-85.2 -5,-5.1 -9.3,-10.9 -14.9,-15.3 -70.5,-53.8 -298.5,-31.5 -334.4,-77.9 106.6,-11.6 215.4,27.1 323.8,26.8 l 11,-31.1 c -309.1,-29.6 -672.8,-96.5 -906,-323.2 -74.5,14.5 -139.8,18.3 -194,75 -64.8,-34.2 -128.5,-67.3 -188.9,-109 -21.4,16.8 -8.3,4.9 -34.4,40.6 3,7.1 5.2,14.6 8.9,21.4 113.1,211.2 765,358.3 996.7,418"
         style="fill:#080808;fill-opacity:1;fill-rule:nonzero;stroke:none"
         transform="matrix(0.13333333,0,0,-0.13333333,0,5333.3333)" />
      <path
         id="path52"
         d="m 21736.4,27842.1 c 352.9,183.3 715,315.6 1114.5,345.7 -5,-5.1 -9.3,-10.9 -14.9,-15.3 -70.5,-53.8 -298.5,-31.5 -334.4,-77.9 106.6,-11.6 215.4,27.1 323.8,26.8 l 11,-31.1 c -309.1,-29.6 -672.8,-96.5 -906,-323.2 -74.5,14.5 -139.8,18.3 -194,75"
         style="fill:#84241b;fill-opacity:1;fill-rule:nonzero;stroke:none"
         transform="matrix(0.13333333,0,0,-0.13333333,0,5333.3333)" />
      <path
         id="path53"
         d="m 21547.5,27733.1 c 60.4,41.7 124.1,74.8 188.9,109 54.2,-56.7 119.5,-60.5 194,-75 -287.2,-256.2 -367.7,-501.8 -565.7,-816.4 -50.8,263.5 -238.3,531.4 -216.5,804.5 86.8,-27.2 243.5,-7.1 309.1,-39.3 l -51.1,-3.5 48.6,-23.9 -17.8,-60.8 21,-15 c 40.1,35 62.5,60.8 89.1,108.1 l 0.4,12.3"
         style="fill:#562b27;fill-opacity:1;fill-rule:nonzero;stroke:none"
         transform="matrix(0.13333333,0,0,-0.13333333,0,5333.3333)" />
      <path
         id="path54"
         d="m 18831.3,21892.1 c 166.9,-43.5 327.8,-106.5 495.3,-150 770.8,-200.3 1199.1,-71.9 1939.7,173.6 -42,-58.7 -96.4,-109.4 -146.7,-161.1 -64.6,-48.2 -130.1,-89.4 -201,-127.4 -429.9,-230 -922,-320.7 -1396.1,-174.6 -221.6,68.3 -579.2,227.8 -691.2,439.5"
         style="fill:#562b27;fill-opacity:1;fill-rule:nonzero;stroke:none"
         transform="matrix(0.13333333,0,0,-0.13333333,0,5333.3333)" />
      <path
         id="path55"
         d="m 21152.8,27768.4 c 130.2,47.2 292.2,302 422.7,400.1 432.9,325.7 940.3,540.6 1456.7,694 -81.1,-105.4 -501.8,-555.9 -520.8,-627 l 7.3,-22.4 c -231.7,-59.7 -883.6,-206.8 -996.7,-418 -3.7,-6.8 -5.9,-14.3 -8.9,-21.4 26.1,-35.7 13,-23.8 34.4,-40.6 l -0.4,-12.3 c -26.6,-47.3 -49,-73.1 -89.1,-108.1 l -21,15 17.8,60.8 -48.6,23.9 51.1,3.5 c -65.6,32.2 -222.3,12.1 -309.1,39.3 l 4.6,13.2"
         style="fill:#411f1d;fill-opacity:1;fill-rule:nonzero;stroke:none"
         transform="matrix(0.13333333,0,0,-0.13333333,0,5333.3333)" />
      <path
         id="path56"
         d="m 19242.9,23845.4 c -2,101 -0.6,196.1 13.5,296.7 45.9,-91.8 55.1,-116.8 137.9,-176.9 126.5,-25.5 257.3,-82.7 384.1,-94 253.5,-22.8 512.2,42.1 766.5,21.1 90.5,38.8 175.1,85.4 247.5,152.5 7.9,39.5 14.5,65.9 36.9,99.6 l 18.5,-16.2 c 11.2,-55.1 11.5,-97.4 -0.9,-152.8 -45.6,-203.2 -174.1,-343.8 -348.6,-447.5 -210.6,-125.2 -442.2,-181 -683.3,-114.3 -252,69.6 -444.9,202.5 -572.1,431.8"
         style="fill:#562b27;fill-opacity:1;fill-rule:nonzero;stroke:none"
         transform="matrix(0.13333333,0,0,-0.13333333,0,5333.3333)" />
      <path
         id="path57"
         d="m 19394.3,23965.2 c 126.5,-25.5 257.3,-82.7 384.1,-94 253.5,-22.8 512.2,42.1 766.5,21.1 -110,-67.7 -217.7,-122.4 -346,-145.5 -192.8,-34.7 -586.2,7.2 -737.2,159.8 -46.3,46.8 22.1,-6 -42.5,41.1 -8.2,5.9 -16.5,11.6 -24.9,17.5"
         style="fill:#814f43;fill-opacity:1;fill-rule:nonzero;stroke:none"
         transform="matrix(0.13333333,0,0,-0.13333333,0,5333.3333)" />
      <path
         id="path58"
         d="m 19596.1,22670.1 c 452.7,-146.2 449.4,-61.3 871.4,-19.6 210.9,-118.3 430.6,-277.1 578,-471 -88.8,-3.7 -189.2,27 -277.1,43.9 -109.6,-42.1 -894.6,-1.7 -1106.2,-12.2 -171.1,-8.5 -359.8,-44.1 -527.3,-80.8 -206.1,-10.6 -410.5,-83.1 -615.5,-112.9 l -1.8,10 c 154.6,69.5 329.4,102.7 493.4,144.3 127.9,207.9 363.4,398.4 585.1,498.3"
         style="fill:#5f352d;fill-opacity:1;fill-rule:nonzero;stroke:none"
         transform="matrix(0.13333333,0,0,-0.13333333,0,5333.3333)" />
      <path
         id="path59"
         d="m 19011,22171.8 c 573.6,115 1177.1,151.4 1757.4,51.6 -109.6,-42.1 -894.6,-1.7 -1106.2,-12.2 -171.1,-8.5 -359.8,-44.1 -527.3,-80.8 -206.1,-10.6 -410.5,-83.1 -615.5,-112.9 l -1.8,10 c 154.6,69.5 329.4,102.7 493.4,144.3"
         style="fill:#411f1d;fill-opacity:1;fill-rule:nonzero;stroke:none"
         transform="matrix(0.13333333,0,0,-0.13333333,0,5333.3333)" />
      <path
         id="path60"
         d="m 23284.6,29223.7 c 398.3,22.3 776.6,-10.8 1139.7,-184.4 -477.9,13.2 -951.5,45.3 -1392.1,-176.8 -516.4,-153.4 -1023.8,-368.3 -1456.7,-694 -130.5,-98.1 -292.5,-352.9 -422.7,-400.1 l -49.2,69.6 c -46.3,105.4 -103.1,215.9 -130,328.2 -16.5,68.4 -23.4,139.5 18.8,200.1 102.1,146.7 341.2,230.8 499.7,301.7 580.7,259.7 1159.7,464.7 1792.5,555.7"
         style="fill:url(#linearGradient61);fill-opacity:1;fill-rule:nonzero;stroke:none"
         transform="matrix(0.13333333,0,0,-0.13333333,0,5333.3333)"
         clip-path="url(#clipPath61)" />
      <path
         id="path62"
         d="m 15372.5,29035.6 c 99.4,153.4 290.5,214.2 461.7,250.1 792.6,165.8 2323.6,-340.1 3009.1,-785.9 55.6,-36.1 147.2,-97.4 171.2,-163.6 47.4,-130.8 -107.8,-453.2 -141.4,-587.8 -163.2,95.9 -294.1,267.9 -437.3,392.8 -424.4,369.9 -1749.4,977.2 -2319.4,1001.7 -253.4,10.9 -472.5,-91.2 -715,-105.9 -9.6,-0.6 -19.3,-0.9 -28.9,-1.4"
         style="fill:#080808;fill-opacity:1;fill-rule:nonzero;stroke:none"
         transform="matrix(0.13333333,0,0,-0.13333333,0,5333.3333)" />
      <path
         id="path63"
         d="m 22836.4,28090.3 c 534.1,-3.2 1035.5,-136.5 1577.3,-82.9 -123.7,-136.2 -246.9,-271.7 -356.2,-419.9 -399,-540.9 -732,-1077.9 -1470.7,-1129.3 l -9.3,16.1 11,21.1 c -94.3,22.3 -217.7,11.1 -316.8,19.6 -309.4,26.6 -585,91.8 -865.7,224.5 42.9,119.8 96.7,232.4 131.7,355.4 -110.4,-90.5 -140.4,-225.4 -241.6,-318.1 l -7.6,13.7 76.2,160.2 c 198,314.6 278.5,560.2 565.7,816.4 233.2,226.7 596.9,293.6 906,323.2"
         style="fill:#080808;fill-opacity:1;fill-rule:nonzero;stroke:none"
         transform="matrix(0.13333333,0,0,-0.13333333,0,5333.3333)" />
      <path
         id="path64"
         d="m 23127.7,27850.3 c 62.2,-7.6 152.4,13.8 215.7,20.1 l 22.4,-94.5 c -6.5,-324.1 31.9,-626.1 -222,-880.5 -110,-110.1 -250.7,-177 -407.5,-176.9 -199.1,0.1 -391.7,105.3 -524.6,249.2 -91.4,99 -88.7,211.2 -154.2,310.9 -10.4,77.5 -38,240.5 2.9,309.5 15.6,26.4 33.4,41 63,47.1 85.3,17.2 153.3,-18.1 222.5,-63.5 46.6,-32.9 70.7,-47.8 93.4,-102.3 -9.3,-73.2 -26.8,-97.8 -83.8,-145.8 31.8,-53.4 65.2,-118.5 110.6,-161.3 58.5,-55.1 154.5,-85.3 234.1,-76.9 61.8,6.4 118.7,41.3 157.4,89 83.1,102.5 103.1,258.4 92.4,385.4 -2.5,7.7 -5.5,15.4 -7.5,23.3 -15.3,58.6 -18.4,134 18.9,185.1 41.6,57 101.5,67 166.3,82.1"
         style="fill:#d34d22;fill-opacity:1;fill-rule:nonzero;stroke:none"
         transform="matrix(0.13333333,0,0,-0.13333333,0,5333.3333)" />
      <path
         id="path65"
         d="m 22345.9,27571.7 c 46.6,-32.9 70.7,-47.8 93.4,-102.3 -9.3,-73.2 -26.8,-97.8 -83.8,-145.8 -40,17.9 -85,41 -114.1,74.8 -35.3,41.1 -38.5,65.1 -32.8,116.8 47.1,46.2 73.8,43.8 137.3,56.5"
         style="fill:#ffffff;fill-opacity:1;fill-rule:nonzero;stroke:none"
         transform="matrix(0.13333333,0,0,-0.13333333,0,5333.3333)" />
      <path
         id="path66"
         d="m 23127.7,27850.3 c 44.4,-18.4 57.5,-32.3 83.4,-72.6 -1,-58.8 -19.1,-97 -59.7,-138.2 -44.1,-44.8 -72.5,-55.2 -132.8,-66.6 l -39,-7.8 c -9.9,-1.9 -19.8,-3.6 -29.6,-5.3 -2.5,7.7 -5.5,15.4 -7.5,23.3 -15.3,58.6 -18.4,134 18.9,185.1 41.6,57 101.5,67 166.3,82.1"
         style="fill:#ffffff;fill-opacity:1;fill-rule:nonzero;stroke:none"
         transform="matrix(0.13333333,0,0,-0.13333333,0,5333.3333)" />
      <path
         id="path67"
         d="m 23343.4,27870.4 c 119,-12.2 212.3,-42.4 287.7,-141.5 63.2,-83.2 64.8,-190.7 48.1,-289.6 -49.2,-290.9 -229.4,-544.1 -471.3,-708 -46.1,-31.4 -94,-59.9 -143.4,-85.7 -49.6,-25.8 -100.4,-48.6 -152.5,-68.5 -52.2,-19.8 -105.3,-36.6 -159.4,-50.3 -54.1,-13.6 -108.8,-24.1 -164.1,-31.4 -94.3,22.3 -217.7,11.1 -316.8,19.6 -309.4,26.6 -585,91.8 -865.7,224.5 42.9,119.8 96.7,232.4 131.7,355.4 73.4,175.1 258.3,386.7 417.4,486 14.8,-118.6 39,-234.7 63,-351.6 l 39.4,49.3 c 65.5,-99.7 62.8,-211.9 154.2,-310.9 132.9,-143.9 325.5,-249.1 524.6,-249.2 156.8,-0.1 297.5,66.8 407.5,176.9 253.9,254.4 215.5,556.4 222,880.5 l -22.4,94.5"
         style="fill:#f9aa47;fill-opacity:1;fill-rule:nonzero;stroke:none"
         transform="matrix(0.13333333,0,0,-0.13333333,0,5333.3333)" />
      <path
         id="path68"
         d="m 23365.8,27775.9 c 68,-262.3 70.8,-518.4 -75.8,-757.5 -107.2,-174.8 -291.5,-316.9 -493.4,-360.5 -157.9,-34.2 -321.1,1.2 -455.7,89.1 -164.1,107.1 -277,294.2 -322.8,482.3 l 39.4,49.3 c 65.5,-99.7 62.8,-211.9 154.2,-310.9 132.9,-143.9 325.5,-249.1 524.6,-249.2 156.8,-0.1 297.5,66.8 407.5,176.9 253.9,254.4 215.5,556.4 222,880.5"
         style="fill:#84241b;fill-opacity:1;fill-rule:nonzero;stroke:none"
         transform="matrix(0.13333333,0,0,-0.13333333,0,5333.3333)" />
      <path
         id="path69"
         d="m 20343.6,32453.6 c 475.7,-1230.6 941.2,-1921.8 2056.6,-2654.2 277.9,-182.5 624.2,-341.4 869.4,-561.7 5,-4.6 10,-9.3 15,-14 -632.8,-91 -1211.8,-296 -1792.5,-555.7 -158.5,-70.9 -397.6,-155 -499.7,-301.7 -42.2,-60.6 -35.3,-131.7 -18.8,-200.1 26.9,-112.3 83.7,-222.8 130,-328.2 l -56.3,13.9 c -544.6,489 -931.5,1077.8 -1099.1,1796.2 -213.4,915.4 -101.6,2000.9 395.4,2805.5"
         style="fill:#814f43;fill-opacity:1;fill-rule:nonzero;stroke:none"
         transform="matrix(0.13333333,0,0,-0.13333333,0,5333.3333)" />
      <path
         id="path70"
         d="m 22628.6,21346.8 c -136.8,-627.3 -133.8,-1342.1 -149.8,-1984 -392.4,-664.1 -1108,-1143.2 -1849.8,-1331.2 -662.4,-168 -1300.2,15.5 -1876.5,360.4 -250.8,150 -470,330.8 -681.7,531.2 -138.9,171.2 -262.3,411.1 -421.5,557.3 l -32,-24.7 c 29.6,594.6 -41.8,1198.5 -103.4,1789.2 676.6,-521 1554.5,-1450.4 2462.3,-1476.1 829.2,-23.6 2055.4,1009.7 2652.4,1577.9"
         style="fill:#411f1d;fill-opacity:1;fill-rule:nonzero;stroke:none"
         transform="matrix(0.13333333,0,0,-0.13333333,0,5333.3333)" />
      <path
         id="path71"
         d="m 15372.5,29035.6 c 9.6,0.5 19.3,0.8 28.9,1.4 242.5,14.7 461.6,116.8 715,105.9 570,-24.5 1895,-631.8 2319.4,-1001.7 143.2,-124.9 274.1,-296.9 437.3,-392.8 -43.4,-293.1 -116.5,-571.3 -193.2,-856.9 22,-30.8 42.1,-62.3 62,-94.6 -36.4,-3.9 -110.3,68.3 -142.2,93.4 -0.6,-65.7 2,-106.3 -40.5,-161 -45.4,-24.9 -89.5,-48 -137.9,-67 -232.1,-112.1 -471.1,-185.5 -725.8,-226.8 l 55.5,-18.4 c 43.6,-109.1 -57.6,-355.1 -104.3,-463.2 -103.2,-238.7 -255.6,-455.5 -378.3,-684.6 -412.4,-770.1 -715.5,-1653.4 -579.7,-2536.8 42.8,-278.6 162.4,-528.8 217.1,-800.1 -239,229.3 -400.3,529.8 -546,823.7 -956.4,1928.7 -1749,4168.7 -1029,6308.8 l 41.7,-29.3"
         style="fill:#5f352d;fill-opacity:1;fill-rule:nonzero;stroke:none"
         transform="matrix(0.13333333,0,0,-0.13333333,0,5333.3333)" />
      <path
         id="path72"
         d="m 17243.1,28150.1 -10.4,39.3 c 312.2,31 665.5,-144 937.5,-274.6 29.1,-79.5 72.8,-168.3 69.6,-253.7 -346.9,235.9 -560.7,439 -996.7,489"
         style="fill:#84241b;fill-opacity:1;fill-rule:nonzero;stroke:none"
         transform="matrix(0.13333333,0,0,-0.13333333,0,5333.3333)" />
      <path
         id="path73"
         d="m 17243.1,28150.1 c 436,-50 649.8,-253.1 996.7,-489 134.7,-162.5 220,-324.9 310.8,-515.4 38.8,-81.4 73.4,-184.1 129.3,-254.2 22,-30.8 42.1,-62.3 62,-94.6 -36.4,-3.9 -110.3,68.3 -142.2,93.4 l -42,89.6 c -120.2,214.1 -243.3,412.8 -401.7,601 l -19.4,13.6 c -58.2,-104.5 -109.8,-213.7 -163.2,-320.8 -5.3,121.8 18.8,248.9 -3.1,368.3 l -33,6.4 -36.9,-37.6 c 2.4,-71.5 -1.2,-145.1 -60,-195.7 -31,-26.7 -80.4,-39.9 -120.6,-34.4 -5.8,0.7 -11.4,2.7 -17,4 -39.3,-175.5 -119.8,-280.1 -266.9,-382.7 -85.2,25.5 -163,68.2 -228.6,129 -75,69.6 -95.4,124 -97.5,223.2 l 101.5,249.4 -121.3,126.5 c -47.2,92.6 -115.2,134.7 -200.2,189.7 -81.4,22.2 -143.5,20.7 -226.3,5.2 -147.9,-28.2 -303.1,-70.3 -393.2,-201.9 -69,-100.8 -67.4,-226.5 -40.1,-341.3 76.9,-323.2 316,-566.3 579.7,-751.1 -13.1,0.5 -26.3,-0.6 -39.3,1.4 -372.6,59.9 -1059,1104.9 -1328.8,1420.2 558.1,-106.7 1222.5,76.6 1801.3,97.8"
         style="fill:#080808;fill-opacity:1;fill-rule:nonzero;stroke:none"
         transform="matrix(0.13333333,0,0,-0.13333333,0,5333.3333)" />
      <path
         id="path74"
         d="m 17702.8,27384.7 c -16.1,39.6 -41.3,88.2 -39.9,131.5 1.5,44.2 18.4,55.2 46.6,85.4 68.8,22.9 119.6,17.3 190.9,9.2 2.4,-71.5 -1.2,-145.1 -60,-195.7 -31,-26.7 -80.4,-39.9 -120.6,-34.4 -5.8,0.7 -11.4,2.7 -17,4"
         style="fill:#ffffff;fill-opacity:1;fill-rule:nonzero;stroke:none"
         transform="matrix(0.13333333,0,0,-0.13333333,0,5333.3333)" />
      <path
         id="path75"
         d="m 16663.5,27925 c 82.8,15.5 144.9,17 226.3,-5.2 85,-55 153,-97.1 200.2,-189.7 l 121.3,-126.5 -101.5,-249.4 c 2.1,-99.2 22.5,-153.6 97.5,-223.2 65.6,-60.8 143.4,-103.5 228.6,-129 147.1,102.6 227.6,207.2 266.9,382.7 5.6,-1.3 11.2,-3.3 17,-4 40.2,-5.5 89.6,7.7 120.6,34.4 58.8,50.6 62.4,124.2 60,195.7 l 36.9,37.6 33,-6.4 c 21.9,-119.4 -2.2,-246.5 3.1,-368.3 53.4,107.1 105,216.3 163.2,320.8 l 19.4,-13.6 c 158.4,-188.2 281.5,-386.9 401.7,-601 l 42,-89.6 c -0.6,-65.7 2,-106.3 -40.5,-161 -45.4,-24.9 -89.5,-48 -137.9,-67 -232.1,-112.1 -471.1,-185.5 -725.8,-226.8 -222.2,-18 -407.4,-6.3 -618.9,69.3 -90.3,36 -177.9,85.6 -266.7,125.9 -263.7,184.8 -502.8,427.9 -579.7,751.1 -27.3,114.8 -28.9,240.5 40.1,341.3 90.1,131.6 245.3,173.7 393.2,201.9"
         style="fill:#f9aa47;fill-opacity:1;fill-rule:nonzero;stroke:none"
         transform="matrix(0.13333333,0,0,-0.13333333,0,5333.3333)" />
      <path
         id="path76"
         d="m 18557.7,26979.9 42,-89.6 c -0.6,-65.7 2,-106.3 -40.5,-161 -45.4,-24.9 -89.5,-48 -137.9,-67 42.2,109.2 103.7,202.9 136.4,317.6"
         style="fill:#f68b26;fill-opacity:1;fill-rule:nonzero;stroke:none"
         transform="matrix(0.13333333,0,0,-0.13333333,0,5333.3333)" />
      <path
         id="path77"
         d="m 16663.5,27925 c 82.8,15.5 144.9,17 226.3,-5.2 -77.3,-80.9 -124.5,-141.6 -159.2,-248.4 -7.4,-178.2 -13.7,-355.4 -11.3,-533.8 56.3,-197.5 179.7,-378.5 361.1,-482.1 130.1,-74.4 277,-92.6 420.2,-46.7 97,31 160.5,78.6 231.5,149.4 l 62.7,9.8 c -146.6,-142.3 -311.3,-223.1 -519.5,-220.4 -37.4,0.5 -74.8,3.2 -112,6.1 -972.9,487.2 -370.8,1125.6 -499.8,1371.3"
         style="fill:#84241b;fill-opacity:1;fill-rule:nonzero;stroke:none"
         transform="matrix(0.13333333,0,0,-0.13333333,0,5333.3333)" />
      <path
         id="path78"
         d="m 16889.8,27919.8 c 85,-55 153,-97.1 200.2,-189.7 l 121.3,-126.5 -101.5,-249.4 c 2.1,-99.2 22.5,-153.6 97.5,-223.2 65.6,-60.8 143.4,-103.5 228.6,-129 147.1,102.6 227.6,207.2 266.9,382.7 5.6,-1.3 11.2,-3.3 17,-4 40.2,-5.5 89.6,7.7 120.6,34.4 58.8,50.6 62.4,124.2 60,195.7 l 36.9,37.6 33,-6.4 c 21.9,-119.4 -2.2,-246.5 3.1,-368.3 53.4,107.1 105,216.3 163.2,320.8 l 19.4,-13.6 c -31.2,-206.3 -73,-376.1 -190.2,-552.6 -47.3,-92.4 -94.4,-188 -171,-260.3 l -62.7,-9.8 c -71,-70.8 -134.5,-118.4 -231.5,-149.4 -143.2,-45.9 -290.1,-27.7 -420.2,46.7 -181.4,103.6 -304.8,284.6 -361.1,482.1 -2.4,178.4 3.9,355.6 11.3,533.8 34.7,106.8 81.9,167.5 159.2,248.4"
         style="fill:#d34d22;fill-opacity:1;fill-rule:nonzero;stroke:none"
         transform="matrix(0.13333333,0,0,-0.13333333,0,5333.3333)" />
      <path
         id="path79"
         d="m 17965.8,27028.3 c -47.3,-92.4 -94.4,-188 -171,-260.3 l -62.7,-9.8 -86,10.4 c 91.9,130.9 180.9,188.3 319.7,259.7"
         style="fill:#de6524;fill-opacity:1;fill-rule:nonzero;stroke:none"
         transform="matrix(0.13333333,0,0,-0.13333333,0,5333.3333)" />
      <path
         id="path80"
         d="m 17109.8,27354.2 c -80.9,54.2 -185.2,141.6 -215.3,238.4 -17,54.4 -9.6,66.1 13.4,114.3 68.5,35.1 106.2,26 182.1,23.2 l 121.3,-126.5 -101.5,-249.4"
         style="fill:#f9aa47;fill-opacity:1;fill-rule:nonzero;stroke:none"
         transform="matrix(0.13333333,0,0,-0.13333333,0,5333.3333)" />
    </g>
  </g>
</svg>
