<svg id="Layer_1" enable-background="new 0 0 512 512" viewBox="0 0 512 512" xmlns="http://www.w3.org/2000/svg"><g><g clip-rule="evenodd" fill-rule="evenodd"><path d="m392.3 425.95c0 42.69-87.82 77.3-196.16 77.3s-196.16-34.61-196.16-77.3v-227.03h392.32z" fill="#ffd75c"/><path d="m44.12 474.79c-27.58-13.32-44.14-30.3-44.14-48.84v-227.03h44.14z" fill="#e6c253"/><path d="m392.3 313.08c0 42.69-87.82 77.3-196.16 77.3s-196.16-34.61-196.16-77.3v-227.03h392.32z" fill="#fea832"/><path d="m44.12 361.92c-27.58-13.32-44.14-30.3-44.14-48.84v-227.03h44.14z" fill="#e5972d"/><path d="m392.3 200.06c0 42.69-87.82 77.3-196.16 77.3s-196.16-34.61-196.16-77.3v-114.01h392.32z" fill="#ffd75c"/><path d="m44.12 248.9c-27.58-13.32-44.14-30.33-44.14-48.84v-114.01h44.14z" fill="#e6c253"/><path d="m196.15 163.32c108.03 0 196.16-34.7 196.16-77.27 0-42.58-88.13-77.3-196.16-77.3s-196.16 34.72-196.16 77.3 88.13 77.27 196.16 77.27z" fill="#fea832"/><path d="m196.15 8.75c6.86 0 13.61.14 20.27.43-98.79 4-175.86 36.88-175.86 76.88 0 39.97 77.07 72.88 175.86 76.88-6.66.25-13.41.4-20.27.4-108.34 0-196.16-34.58-196.16-77.27 0-42.71 87.82-77.32 196.16-77.32z" fill="#e5972d"/></g><path d="m133.33 435.79c4.51.6 7.68 4.76 7.09 9.27-.62 4.51-4.76 7.65-9.27 7.06-9.72-1.33-19.08-2.92-28.03-4.79-9.01-1.87-17.69-4.03-25.97-6.43-4.37-1.28-6.89-5.84-5.61-10.21 1.25-4.37 5.81-6.89 10.18-5.61 7.74 2.27 16.02 4.31 24.75 6.12 8.61 1.78 17.59 3.34 26.86 4.59zm0-228.39c4.51.6 7.68 4.76 7.09 9.27-.62 4.51-4.76 7.65-9.27 7.06-9.72-1.33-19.08-2.92-28.03-4.79-9.01-1.87-17.69-4.02-25.97-6.43-4.37-1.28-6.89-5.84-5.61-10.2 1.25-4.37 5.81-6.86 10.18-5.61 7.74 2.27 16.02 4.31 24.75 6.12 8.61 1.77 17.59 3.33 26.86 4.58zm0 114.21c4.51.6 7.68 4.73 7.09 9.24-.62 4.51-4.76 7.68-9.27 7.06-9.72-1.3-19.11-2.92-28.03-4.76-9.01-1.87-17.69-4.03-25.97-6.46-4.37-1.25-6.89-5.81-5.61-10.18 1.25-4.37 5.81-6.89 10.18-5.61 7.74 2.24 16.02 4.31 24.75 6.12 8.61 1.78 17.59 3.31 26.86 4.59z" fill="#fff"/><path clip-rule="evenodd" d="m392.33 452.97c65.91 0 119.68-53.74 119.68-119.65s-53.77-119.68-119.68-119.68-119.65 53.77-119.65 119.68c0 65.9 53.75 119.65 119.65 119.65z" fill="#0593fc" fill-rule="evenodd"/><path d="m316.31 313.95c4.11-16.04 13.27-30.22 25.65-40.65 13.63-11.51 31.21-18.48 50.37-18.48 21.69 0 41.3 8.79 55.5 22.99s22.99 33.82 22.99 55.5c0 .77 0-.37-.03 1.3-.37 21.15-9.07 40.42-22.96 54.43-13.98 14.03-33.14 22.76-54.34 22.76-.82 0 .4 0-1.28-.03-10.89-.2-21.26-2.52-30.67-6.63-9.81-4.25-18.57-10.37-25.82-17.89-3.15-3.29-3.03-8.5.23-11.65 3.29-3.15 8.5-3.06 11.65.23 5.78 6.01 12.73 10.86 20.47 14.23 7.48 3.23 15.73 5.1 24.41 5.24.88.03-.57-.03 1.02-.03 16.64 0 31.69-6.83 42.66-17.86 11-11.08 17.92-26.33 18.17-43.06.03-.88 0 .51 0-1.05 0-17.12-6.94-32.63-18.17-43.82-11.2-11.23-26.7-18.17-43.82-18.17-15.17 0-29.06 5.5-39.8 14.57-9.61 8.08-16.75 19.05-20.07 31.46l8.08-5.78c3.71-2.64 8.84-1.79 11.48 1.93s1.79 8.84-1.93 11.48l-23.87 17.06c-3.71 2.64-8.84 1.79-11.48-1.93l-17.06-23.87c-2.64-3.71-1.76-8.84 1.93-11.48 3.71-2.64 8.84-1.76 11.48 1.93z" fill="#fff"/><path clip-rule="evenodd" d="m392.33 213.64c2.72 0 5.39.11 8.05.28-62.33 4.14-111.6 56.01-111.6 119.4 0 63.38 49.27 115.23 111.6 119.37-2.66.2-5.33.28-8.05.28-66.08 0-119.65-53.57-119.65-119.65 0-66.11 53.58-119.68 119.65-119.68z" fill="#0584e3" fill-rule="evenodd"/></g></svg>