<?xml version="1.0" encoding="UTF-8" standalone="no"?>
<svg
   id="Layer_1"
   data-name="Layer 1"
   viewBox="0 0 511.99999 511.99998"
   version="1.1"
   width="512"
   height="512"
   xmlns:xlink="http://www.w3.org/1999/xlink"
   xmlns="http://www.w3.org/2000/svg"
   xmlns:svg="http://www.w3.org/2000/svg">
  <defs
     id="defs2">
    <style
       id="style1">.cls-1{fill:url(#linear-gradient);}.cls-2{fill:url(#linear-gradient-2);}.cls-3{fill:url(#linear-gradient-3);}</style>
    <linearGradient
       id="linear-gradient"
       x1="463"
       y1="205.16"
       x2="182.39"
       y2="742.62"
       gradientTransform="translate(0,-198)"
       gradientUnits="userSpaceOnUse">
      <stop
         offset="0"
         stop-color="#00ffa3"
         id="stop1" />
      <stop
         offset="1"
         stop-color="#dc1fff"
         id="stop2" />
    </linearGradient>
    <linearGradient
       id="linear-gradient-2"
       x1="340.31"
       y1="141.10001"
       x2="59.709999"
       y2="678.57001"
       xlink:href="#linear-gradient"
       gradientTransform="translate(-0.04674286,-55)" />
    <linearGradient
       id="linear-gradient-3"
       x1="401.26001"
       y1="172.92"
       x2="120.66"
       y2="710.39001"
       xlink:href="#linear-gradient"
       gradientTransform="translate(-0.02208256,-55)" />
    <linearGradient
       xlink:href="#linear-gradient"
       id="linearGradient4"
       gradientUnits="userSpaceOnUse"
       gradientTransform="translate(-0.04674286,-253)"
       x1="463"
       y1="205.16"
       x2="182.39"
       y2="742.62" />
  </defs>
  <g
     id="g4"
     transform="translate(0,56.935003)">
    <path
       class="cls-1"
       d="m 84.483257,303.89 a 16.63,16.63 0 0 1 11.75,-4.89 H 501.68326 a 8.3,8.3 0 0 1 5.87,14.18 l -80.09,80.09 a 16.61,16.61 0 0 1 -11.75,4.86 H 10.263257 A 8.31,8.31 0 0 1 4.3832571,384 Z"
       id="path2"
       style="fill:url(#linearGradient4)" />
    <path
       class="cls-2"
       d="M 84.483257,4.85 A 17.08,17.08 0 0 1 96.233257,0 H 501.68326 a 8.3,8.3 0 0 1 5.87,14.18 l -80.09,80.09 a 16.61,16.61 0 0 1 -11.75,4.86 H 10.263257 A 8.31,8.31 0 0 1 4.3832571,85 Z"
       id="path3"
       style="fill:url(#linear-gradient-2)" />
    <path
       class="cls-3"
       d="m 427.48792,153.42 a 16.61,16.61 0 0 0 -11.75,-4.86 H 10.287917 a 8.31,8.31 0 0 0 -5.8799996,14.18 l 80.0999996,80.09 a 16.6,16.6 0 0 0 11.75,4.86 H 501.70792 a 8.3,8.3 0 0 0 5.87,-14.18 z"
       id="path4"
       style="fill:url(#linear-gradient-3)" />
  </g>
</svg>
