<?xml version="1.0" encoding="UTF-8" standalone="no"?>
<svg
   viewBox="0 0 512 512"
   version="1.1"
   id="svg2"
   width="512"
   height="512"
   xmlns="http://www.w3.org/2000/svg"
   xmlns:svg="http://www.w3.org/2000/svg"
   xmlns:rdf="http://www.w3.org/1999/02/22-rdf-syntax-ns#"
   xmlns:cc="http://creativecommons.org/ns#"
   xmlns:dc="http://purl.org/dc/elements/1.1/">
  <defs
     id="defs2" />
  <title
     id="title1">Asset 1</title>
  <metadata
     id="metadata2">
    <rdf:RDF>
      <cc:Work
         rdf:about="">
        <dc:title>Asset 1</dc:title>
      </cc:Work>
    </rdf:RDF>
  </metadata>
  <circle
     style="fill:#ffffff;stroke-width:1.35746"
     id="path3"
     cx="256"
     cy="256"
     r="256" />
  <g
     id="Layer_2"
     data-name="Layer 2"
     transform="translate(109.66439,85.271398)">
    <g
       id="Layer_1-2"
       data-name="Layer 1"
       transform="matrix(1.8129681,0,0,1.8129681,-67.920953,-10.529462)">
      <path
         d="m 203,26.16 -28.46,14.5 -137.43,70 A 82.49,82.49 0 0 1 36.41,99.97 81.87,81.87 0 0 1 158.2,28.6 l 16.29,-8.3 2.43,-1.24 A 100,100 0 0 0 18.18,100 q 0,3.82 0.29,7.61 A 18.19,18.19 0 0 1 8.59,125.19 L 0,129.57 V 150 l 25.29,-12.89 v 0 l 8.19,-4.18 8.07,-4.11 v 0 L 186.43,55 202.71,46.71 236.36,29.56 V 9.14 Z"
         id="path1" />
      <path
         d="M 236.36,50 49.78,145 33.5,153.31 0,170.38 v 20.41 L 33.27,173.84 61.73,159.34 199.3,89.24 A 83.45,83.45 0 0 1 200,100 81.87,81.87 0 0 1 78.09,171.36 l -1,0.53 -17.66,9 A 100,100 0 0 0 218.18,100 c 0,-2.57 -0.1,-5.14 -0.29,-7.68 a 18.2,18.2 0 0 1 9.87,-17.58 l 8.6,-4.38 z"
         id="path2" />
    </g>
  </g>
</svg>
