<?xml version="1.0" encoding="UTF-8"?>
<!-- Generator: Adobe Illustrator 26.0.3, SVG Export Plug-In . SVG Version: 6.00 Build 0)  -->
<svg width="512" height="512" version="1.0" viewBox="0 0 512 512" xml:space="preserve" xmlns="http://www.w3.org/2000/svg">
<style type="text/css">
	.st0{fill:#FF060A;}
	.st1{fill:#FFFFFF;}
</style>
<path class="st0" d="m256 512c141.44 0 256-114.64 256-256s-114.56-256-256-256-256 114.64-256 256 114.66 256 256 256z" stroke-width="1.002"/>
<path class="st1" d="m407.8 205.2c-14.4-12.8-34.4-32.3-50.6-46.1l-1-0.6c-1.6-1.2-3.4-2.2-5.3-2.9-39.2-7-221.6-39.7-225.1-39.3-1 0.1-2 0.5-2.8 1l-0.9 0.7c-1.1 1.1-2 2.4-2.5 3.9l-0.2 0.6v3.8c20.5 54.8 101.6 234.2 117.6 276.4 1 2.9 2.8 8.3 6.2 8.6h0.8c1.8 0 9.6-9.9 9.6-9.9s139.3-161.8 153.4-179c1.8-2.1 3.4-4.4 4.8-6.8 0.4-1.9 0.2-3.8-0.5-5.6s-2-3.5-3.5-4.8zm-118.6 18.9 59.4-47.2 34.9 30.8zm-23.1-3.1-102.3-80.4 165.6 29.3zm9.2 21 104.7-16.2-119.7 138.3zm-125.4-93.3 107.7 87.5-15.6 128z"/>
</svg>
