<?xml version="1.0" encoding="UTF-8" standalone="no"?>
<!-- Generator: Adobe Illustrator 28.5.0, SVG Export Plug-In . SVG Version: 9.03 Build 54727)  -->

<svg
   version="1.0"
   id="katman_1"
   x="0px"
   y="0px"
   viewBox="0 0 267.6 267.60001"
   xml:space="preserve"
   width="267.60001"
   height="267.60001"
   xmlns="http://www.w3.org/2000/svg"
   xmlns:svg="http://www.w3.org/2000/svg"><defs
   id="defs3" />
<style
   type="text/css"
   id="style1">
	.st0{fill:#0098EA;}
	.st1{fill:#FFFFFF;}
</style>
<path
   class="st0"
   d="m 133.8,267.6 c 73.9,0 133.8,-59.9 133.8,-133.8 C 267.6,59.9 207.7,0 133.8,0 59.9,0 0,59.9 0,133.8 0,207.7 59.9,267.6 133.8,267.6 Z"
   id="path1" />
<path
   class="st1"
   d="M 179.5,74.7 H 88.1 c -16.8,0 -27.4,18.1 -19,32.8 l 56.4,97.8 c 3.7,6.4 12.9,6.4 16.6,0 l 56.4,-97.8 c 8.4,-14.7 -2.2,-32.8 -19,-32.8 z M 125.4,175.9 113.1,152.1 83.5,99.1 C 82.1,96.6 83,93.5 85.4,92 86.2,91.5 87.1,91.3 88,91.3 h 37.3 l 0.1,84.6 z m 58.6,-76.8 -29.6,53 -12.3,23.8 V 91.4 h 37.4 c 4.1,-0.1 6.5,4.3 4.5,7.7 z"
   id="path2" />

</svg>
