<svg xmlns="http://www.w3.org/2000/svg" version="1.1" xmlns:xlink="http://www.w3.org/1999/xlink" width="512" height="512" x="0" y="0" viewBox="0 0 500 500" style="enable-background:new 0 0 512 512" xml:space="preserve" class=""><g><circle cx="250" cy="250" r="249.2" fill="#8700ad" opacity="1" data-original="#00ad0c" class=""></circle><g fill="#fff"><path d="M224.7 306.7c7.9 0 13.6.9 17 2.8 3.4 1.8 5.7 4.6 6.8 8.4s1.7 8.7 1.7 14.8-.6 11-1.9 14.7-3.3 6.2-6.2 7.6c-4.3 2.3-10.3 3.5-18 3.5H110.5c-7 0-13-2.6-18-7.8s-7.6-11.3-7.6-18.3c0-10.5 3.6-20.1 10.9-28.9s16-16.4 26.3-22.7 20.5-12.5 30.8-18.6 19-13 26.3-20.8c7.3-7.7 10.9-16 10.9-24.7 0-1.7-.7-4.2-2-7.4-1.4-3.2-2.9-5.8-4.5-7.8s-4.2-3.9-7.7-5.7-8.3-2.6-14.5-2.6-11.6 2.3-16.1 6.8c-4.6 4.6-7.1 9.1-7.7 13.5l-1.2 6.7v1.7c0 4.3-.1 7.5-.4 9.6s-1.2 4.6-2.8 7.3c-2.9 4.6-10.5 7-22.7 7-13.6 0-21.6-3.7-24.1-11-1-3.1-1.5-8-1.5-14.8 0-20.1 7.2-38.2 21.6-54.2s33.3-24 56.7-24c23.3 0 42.3 8.1 56.8 24.3s21.8 34.6 21.8 55.3c0 11-2.4 21.5-7.3 31.4-4.8 9.9-10.7 17.8-17.4 23.8-14.3 12.8-27.1 21.4-38.3 25.9l-7.3 2.9v1.5h53.2zM366.5 151.8c1.5-2.7 4.2-4.6 8-5.7s8.7-1.6 14.8-1.6 11 .6 14.7 1.9 6.3 3.3 7.8 6.1 2.5 5.4 2.8 7.7.4 5.7.4 10.2v161.5c0 7.6-.9 13.1-2.8 16.7-1.8 3.6-4.6 6-8.4 7.1-3.8 1.2-8.5 1.7-14.1 1.7s-10.1-.5-13.4-1.5-5.8-2.1-7.6-3.5c-1.7-1.4-3-3.3-3.8-5.8-1.2-3.3-1.7-8.3-1.7-15.1v-35.4h-78.7c-13.6 0-21.6-3.7-24.1-11-1-3.1-1.5-7.3-1.5-12.5s.3-9.1.9-11.6l24.1-97.3c1.2-4.5 2.2-7.8 3-10.2.9-2.3 2.6-4.5 5.2-6.7 2.6-2.1 6-3.2 10-3.2s8.5.7 13.4 2c13.6 3.7 20.3 9.9 20.3 18.6 0 3.1-.7 7.2-2 12.2-.2.4-.3.7-.3.9l-17.7 70.9h47.4v-79.3c0-4.5.1-7.7.4-9.9.4-2.1 1.3-4.5 2.9-7.2z" fill="#ffffff" opacity="1" data-original="#ffffff"></path></g></g></svg>